<svg xmlns="http://www.w3.org/2000/svg" xmlns:xlink="http://www.w3.org/1999/xlink" xmlns:lucid="lucid" width="2284.59" height="2024.59"><g transform="translate(-3400 2)" lucid:page-tab-id="eNbqbEM6f5NI"><path d="M4168.55 223.6h-38.65c-2.07 0-3.73 1.63-3.73 3.64h46.07c0-2-1.66-3.63-3.7-3.64zM4129.93 230.87h38.65c2.03 0 3.68-1.62 3.68-3.6h-46.06c.04 2 1.7 3.6 3.73 3.6z" fill-opacity="0"/><path d="M4172.23 227.26c0 2-1.6 3.62-3.66 3.62h-38.67c-2.07.02-3.66-1.6-3.78-3.62H4060v3.62c0 5.03 4.15 9.1 9.27 9.1h103.45c5.12.02 9.27-4.05 9.27-9.1v-3.62zM4177.9 183.96l-5.97 6.44c0 2.3-1.94 4.14-4.26 4.14h-93.47c-2.3-.02-4.26-1.86-4.26-4.14l-5-6.44h-4.85v6.44c0 7.62 6.3 13.78 14.1 13.76h93.47c7.8.02 14.12-6.14 14.12-13.76v-6.44z" fill="#7d7c7c"/><path d="M4172.73 209.16c5-.03 9.27 4 9.27 9.02v7.35c0 5.06-4.15 9.1-9.27 9.1h-103.46c-5.12 0-9.27-4.04-9.27-9.06v-7.33c0-5 4.15-9.08 9.27-9.05zm-4.15 16.38c2.07 0 3.66-1.63 3.66-3.64 0-2-1.6-3.65-3.66-3.65h-38.67c-2.07 0-3.65 1.64-3.65 3.65 0 2 1.58 3.64 3.66 3.64h38.68M4167.67 120c7.8 0 14.12 6.15 14.12 13.7v51.4c0 7.57-6.34 13.72-14.13 13.72h-93.47c-7.8 0-14.1-6.15-14.1-13.72v-51.4c0-7.55 6.3-13.7 14.1-13.7zm4.26 65.1v-51.4c0-2.27-1.94-4.08-4.26-4.08h-93.47c-2.3 0-4.26 1.8-4.26 4.1v51.38c0 2.2 1.95 4.1 4.26 4.1h93.47c2.32 0 4.26-1.8 4.26-4.1" fill="#d2d3d3"/><use xlink:href="#a" transform="matrix(1,0,0,1,4060,240) translate(5.6499999999999915 14.4)"/><use xlink:href="#b" transform="matrix(1,0,0,1,4060,240) translate(63.449999999999996 14.4)"/><path d="M3420 443.3c0-16.57 13.43-30 30-30h1760c16.57 0 30 13.43 30 30v1529.3c0 16.56-13.43 30-30 30H3450c-16.57 0-30-13.44-30-30z" stroke="#474747" fill-opacity="0"/><path d="M3528 415.7v3.53c0 6.42-7.1 13.06-15.76 13.06h-46.48c-8.66 0-15.75-6.65-15.75-13.07v-3.53z" fill="#9d5125"/><path d="M3480.03 381.3c8.03 0 14.82 4.38 18.17 11.66 4.6-3.13 10.92-1.97 14.04 2.65 1.17 1.65 1.7 3.34 1.8 5.32 7.87.67 13.95 8.24 13.95 14.27v1.3c0 6.45-7.1 13-15.76 13h-46.5c-8.64 0-15.74-6.55-15.74-13v-1.3c0-5.03 4.2-11.87 10.06-13.56v-.58c.08-10.94 8.97-19.8 19.97-19.76z" fill="#f58535"/><path d="M3469.54 404.42l-5.2 18.2h3.04l1.17-4.42h5.38l1.1 4.42h3.05l-4.8-18.2zm-.47 11.4l2.22-8.98 2.1 8.98zM3491.2 418.64h-.03l-2.47-14.22h-3.1l-2.4 14.14h-.06l-2.4-14.14h-2.95l3.53 18.2h3.38l2.35-13.7h.06l2.36 13.7h3.4l3.64-18.2h-2.9l-2.4 14.22zM3505.9 412.7l-1.98-.73c-1.93-.7-2.74-1.52-2.74-3.1-.17-1.26.74-2.43 2-2.6.16-.02.3-.02.45-.02 1.26-.17 2.4.72 2.58 1.97.04.24.03.43 0 .68v.37h2.93v-.4c0-1.88-.5-4.8-5.18-4.8-3.44 0-5.7 1.84-5.7 5.17 0 2.6 1.1 3.96 3.82 4.98l2 .7c1.6.23 2.73 1.6 2.64 3.2.04 1.44-1.08 2.63-2.5 2.67h-.28c-2 0-3-1.12-3-3.33V417h-2.9v.43c0 2.55 1.02 5.53 5.52 5.53 3.7 0 6.07-1.6 6.07-5.47.04-2.5-1.1-3.9-3.7-4.8z" fill="#fff"/><path d="M3524 542c0-16.57 13.43-30 30-30h1628c16.58 0 30 13.43 30 30v1388c0 16.57-13.42 30-30 30H3554c-16.57 0-30-13.43-30-30z" stroke="#474747" fill-opacity="0"/><path d="M3632 514.4v3.54c0 6.42-7.1 13.05-15.76 13.05h-46.48c-8.66 0-15.75-6.64-15.75-13.06v-3.54z" fill="#9d5125"/><path d="M3584.03 480c8.03 0 14.82 4.4 18.17 11.67 4.6-3.14 10.92-1.98 14.04 2.65 1.17 1.64 1.7 3.32 1.8 5.3 7.87.68 13.95 8.25 13.95 14.27v1.3c0 6.45-7.1 13-15.76 13h-46.5c-8.64 0-15.74-6.55-15.74-13v-1.3c0-5.02 4.2-11.87 10.06-13.56v-.57c.08-10.95 8.97-19.82 19.97-19.77z" fill="#f58535"/><path d="M3572.9 503.13h3.08l3.1 14.58 3.32-14.54h3.1l-4.6 18.2h-3.7zM3587.37 503.13h5.77c3.5 0 5.04 2.2 5.04 5.3 0 3.1-1.9 5.4-5.33 5.4h-2.57v7.53h-2.9zm2.9 8.5h2.08c1.56 0 2.9-.83 2.9-3.14 0-1.98-.78-3.17-3.1-3.17h-1.87zM3611.8 514.83v.38c0 3.32-1.3 6.52-5.6 6.52-4.6 0-6.04-2.97-6.04-9.47s1.43-9.46 6.05-9.46c5.2 0 5.54 3.8 5.54 5.7v.37h-2.9v-.3c0-1.7-.5-3.64-2.6-3.57-2.08.08-3.1 1.35-3.1 7.22 0 5.87.92 7.3 3.14 7.3 2.42 0 2.7-2.7 2.7-4.42v-.3z" fill="#fff"/><use xlink:href="#c" transform="matrix(1,0,0,1,3524.0000000000005,1930) translate(773.05 12.799999999999999)"/><use xlink:href="#d" transform="matrix(1,0,0,1,3524.0000000000005,1930) translate(815 12.799999999999999)"/><use xlink:href="#e" transform="matrix(1,0,0,1,3524.0000000000005,1930) translate(825.9499999999999 12.799999999999999)"/><path d="M3967.83 383.65c0 31.82-25.76 57.63-57.5 57.63s-57.5-25.8-57.5-57.63c0-31.8 25.76-57.63 57.5-57.63s57.5 25.82 57.5 57.63z" fill="#9d5025"/><path d="M3852.83 378.92h115v4.73h-115v-4.73z" fill="#9d5025"/><path d="M3967.83 378.93c0 31.8-25.76 57.63-57.5 57.63s-57.5-25.82-57.5-57.63c0-31.82 25.76-57.63 57.5-57.63s57.5 25.8 57.5 57.63z" fill="#f58536"/><path d="M3866.98 384.65v-1.5c.43-6.98 4.33-12.8 10.65-15.85.6-12.87 11.52-22.8 24.43-22.13 8.05.4 14.8 4.5 18.88 11.48 6.58-2.77 14.12.28 16.9 6.82.42.94.68 1.72.86 2.66 8.66 1.72 14.9 10.04 14.9 17.03v1.38c0 8.54-8.84 16.03-18.9 16.03h-48.93c-9.96.05-18.8-7.43-18.8-15.92z" fill="#fff"/><path d="M3922.1 362.78l-3.67 2.53-1.87-4.05c-2.84-6.33-8.7-10.22-15.65-10.27h-.07c-9.5 0-17.3 7.78-17.3 17.4v3.23l-2.7.8c-4.57 1.83-7.57 5.85-7.94 10.78v1.4c0 4.68 5.68 10.1 12.95 10.1h49c7.33 0 12.95-5.42 12.95-10.1v-1.4c0-4.7-5.24-10.87-11.3-11.35l-3.3-.27-.23-3.27c0-1.4-.45-2.55-1.2-3.68-2.17-3.2-6.52-3.98-9.66-1.8z" fill="#f58536"/><use xlink:href="#f" transform="matrix(1,0,0,1,3852.832862665362,441.2959183673471) translate(27.025 14.4)"/><use xlink:href="#g" transform="matrix(1,0,0,1,3852.832862665362,441.2959183673471) translate(24.025 36)"/><path d="M3420 25c0-2.76 2.24-5 5-5h838c2.76 0 5 2.24 5 5v38c0 2.76-2.24 5-5 5h-838c-2.76 0-5-2.24-5-5z" fill="none"/><use xlink:href="#h" transform="matrix(1,0,0,1,3420,20) translate(2.01 28.444444444444446)"/><path d="M3423.05 67.04L5319.6 68" stroke="#999" stroke-width="2" fill="none"/><path d="M3423.07 66.04v1.33l-1.02-.33-.73-1zM5323.6 67v1h-4.03v-1z" fill="#999"/><path d="M4976.6 25c0-2.76 2.23-5 5-5h678c2.75 0 5 2.24 5 5v38c0 2.76-2.25 5-5 5h-678c-2.77 0-5-2.24-5-5z" fill="none"/><use xlink:href="#i" transform="matrix(1,0,0,1,4976.590785001958,20) translate(686 17.7777777777776)"/><path d="M3961.4 223.6h-38.66c-2.08 0-3.73 1.63-3.73 3.64h46.07c0-2-1.66-3.63-3.68-3.64zM3922.76 230.87h38.65c2.04 0 3.7-1.62 3.7-3.6h-46.07c.05 2 1.7 3.6 3.73 3.6z" fill-opacity="0"/><path d="M3965.06 227.26c0 2-1.58 3.62-3.66 3.62h-38.67c-2.07.02-3.66-1.6-3.78-3.62h-66.12v3.62c0 5.03 4.15 9.1 9.27 9.1h103.45c5.12.02 9.27-4.05 9.27-9.1v-3.62zM3970.73 183.96l-5.96 6.44c0 2.3-1.95 4.14-4.26 4.14h-93.46c-2.32-.02-4.26-1.86-4.26-4.14l-5-6.44h-4.86v6.44c0 7.62 6.33 13.78 14.12 13.76h93.47c7.8.02 14.13-6.14 14.13-13.76v-6.44z" fill="#7d7c7c"/><path d="M3965.56 209.16c5-.03 9.27 4 9.27 9.02v7.35c0 5.06-4.15 9.1-9.27 9.1H3862.1c-5.12 0-9.27-4.04-9.27-9.06v-7.33c0-5 4.15-9.08 9.27-9.05zm-4.15 16.38c2.1 0 3.67-1.63 3.67-3.64 0-2-1.58-3.65-3.66-3.65h-38.66c-2.08 0-3.66 1.64-3.66 3.65 0 2 1.58 3.64 3.66 3.64h38.67M3960.5 120c7.8 0 14.13 6.15 14.13 13.7v51.4c0 7.57-6.33 13.72-14.12 13.72h-93.46c-7.8 0-14.12-6.15-14.12-13.72v-51.4c0-7.55 6.33-13.7 14.12-13.7zm4.27 65.1v-51.4c0-2.27-1.95-4.08-4.26-4.08h-93.46c-2.32 0-4.26 1.8-4.26 4.1v51.38c0 2.2 1.94 4.1 4.26 4.1h93.47c2.32 0 4.27-1.8 4.27-4.1" fill="#d2d3d3"/><use xlink:href="#a" transform="matrix(1,0,0,1,3852.832862665362,240) translate(5.6499999999999915 14.4)"/><use xlink:href="#b" transform="matrix(1,0,0,1,3852.832862665362,240) translate(63.449999999999996 14.4)"/><path d="M3748.55 223.6h-38.65c-2.07 0-3.73 1.63-3.73 3.64h46.07c0-2-1.66-3.63-3.7-3.64zM3709.93 230.87h38.65c2.03 0 3.68-1.62 3.68-3.6h-46.06c.04 2 1.7 3.6 3.73 3.6z" fill-opacity="0"/><path d="M3752.23 227.26c0 2-1.6 3.62-3.66 3.62h-38.67c-2.07.02-3.66-1.6-3.78-3.62H3640v3.62c0 5.03 4.15 9.1 9.27 9.1h103.45c5.12.02 9.27-4.05 9.27-9.1v-3.62zM3757.9 183.96l-5.97 6.44c0 2.3-1.94 4.14-4.26 4.14h-93.47c-2.3-.02-4.26-1.86-4.26-4.14l-5-6.44h-4.85v6.44c0 7.62 6.3 13.78 14.1 13.76h93.47c7.8.02 14.12-6.14 14.12-13.76v-6.44z" fill="#7d7c7c"/><path d="M3752.73 209.16c5-.03 9.27 4 9.27 9.02v7.35c0 5.06-4.15 9.1-9.27 9.1h-103.46c-5.12 0-9.27-4.04-9.27-9.06v-7.33c0-5 4.15-9.08 9.27-9.05zm-4.15 16.38c2.07 0 3.66-1.63 3.66-3.64 0-2-1.6-3.65-3.66-3.65h-38.67c-2.07 0-3.65 1.64-3.65 3.65 0 2 1.58 3.64 3.66 3.64h38.68M3747.67 120c7.8 0 14.12 6.15 14.12 13.7v51.4c0 7.57-6.34 13.72-14.13 13.72h-93.47c-7.8 0-14.1-6.15-14.1-13.72v-51.4c0-7.55 6.3-13.7 14.1-13.7zm4.26 65.1v-51.4c0-2.27-1.94-4.08-4.26-4.08h-93.47c-2.3 0-4.26 1.8-4.26 4.1v51.38c0 2.2 1.95 4.1 4.26 4.1h93.47c2.32 0 4.26-1.8 4.26-4.1" fill="#d2d3d3"/><use xlink:href="#a" transform="matrix(1,0,0,1,3640,240) translate(5.6499999999999915 14.4)"/><use xlink:href="#b" transform="matrix(1,0,0,1,3640,240) translate(63.449999999999996 14.4)"/><path d="M3685 998.62l-5 2.07v58.6l5 2.07 20.3-29.87-20.3-32.88z" fill="#9d5025"/><path d="M3696.7 1059.1l-11.7 2.27v-62.75l11.7 2.2v58.3z" fill="#f58536"/><path d="M3690.54 996.3l6.16-2.52 29.26 38.82-29.26 33.6-6.16-2.53V996.3z" fill="#9d5025"/><path d="M3711.27 1062.8l-14.57 3.4v-72.42l14.57 3.4v65.62z" fill="#f58536"/><path d="M3703.56 990.94l7.73-3.2 43.14 49.1-43.15 35.4-7.74-3.2v-78.1z" fill="#9d5025"/><path d="M3729.98 1066.6l-18.7 5.65v-84.52l18.7 5.66v73.2z" fill="#f58536"/><path d="M3720 984.1l9.98-4.1 46.7 52.8-46.7 47.2-9.97-4.1v-91.8z" fill="#9d5025"/><path d="M3780 1059.3l-50.02 20.7V980l50 20.7v58.6z" fill="#f58536"/><use xlink:href="#j" transform="matrix(1,0,0,1,3680,1080) translate(3.625 14.4)"/><use xlink:href="#k" transform="matrix(1,0,0,1,3680,1080) translate(43.575 14.4)"/><use xlink:href="#l" transform="matrix(1,0,0,1,3680,1080) translate(18.549999999999997 36)"/><path d="M3640 691.3c0-16.56 13.43-30 30-30h700c16.57 0 30 13.44 30 30V1306c0 16.57-13.43 30-30 30h-700c-16.57 0-30-13.43-30-30z" fill-opacity="0"/><path d="M3648.1 670.97l1.5-1.64m9.46-5.9l3.86-1.28 4.93-.77 2.15-.07h15.15m15.15 0h3.03m15.15 0h30.3m15.16 0h3.03m15.15 0h30.3m15.16 0h3.03m15.16 0h30.3m15.15 0h3.04m15.15 0h30.3m15.15 0h3.03m15.15 0h30.3m15.15 0h3.04m15.15 0h30.3m15.15 0h3.03m15.15 0h30.3m15.16 0h3.03m15.14 0h30.3m15.15 0h3.02m15.16 0h30.3m15.15 0h3.03m15.15 0h30.32m15.15 0h3.03m15.15 0H4370l5 .43 4.82 1.22 1.1.5m9.4 5.94l1.65 1.52m5.9 9.45l1.3 3.86.75 4.93.08 2.15v14.64m0 14.64v2.93m0 14.64v29.27m0 14.65v2.93m0 14.63v29.28m0 14.64v2.92m0 14.64v29.27m0 14.64v2.9m0 14.65v29.27m0 14.64v2.92m0 14.64v29.27m0 14.63v2.92m0 14.64v29.26m0 14.63v2.92m0 14.64v29.27m0 14.63v2.93m0 14.63v29.27m0 14.63v2.93m0 14.64v29.27m0 14.63v2.93m0 14.63V1306l-.42 5-1.22 4.82-.5 1.1m-5.95 9.4l-1.5 1.65m-9.46 5.9l-3.86 1.3-4.93.75-2.15.08h-15.15m-15.15 0h-3.03m-15.15 0h-30.3m-15.16 0h-3.03m-15.15 0h-30.3m-15.16 0h-3.03m-15.16 0h-30.3m-15.15 0h-3.04m-15.15 0h-30.3m-15.15 0h-3.03m-15.15 0h-30.3m-15.15 0h-3.04m-15.15 0h-30.3m-15.15 0h-3.03m-15.15 0h-30.3m-15.16 0h-3.03m-15.14 0h-30.3m-15.15 0h-3.02m-15.16 0h-30.3m-15.15 0h-3.03m-15.15 0h-30.32m-15.15 0h-3.03m-15.15 0H3670l-5-.42-4.82-1.22-1.1-.5m-9.4-5.95l-1.65-1.5m-5.9-9.46l-1.3-3.86-.75-4.93-.08-2.15v-14.64m0-14.63v-2.93m0-14.63v-29.27m0-14.64v-2.93m0-14.63v-29.27m0-14.64v-2.94m0-14.63v-29.27m0-14.64v-2.93m0-14.64v-29.27m0-14.65v-2.92m0-14.64V984m0-14.64v-2.92m0-14.64v-29.27m0-14.64V905m0-14.65v-29.27m0-14.64v-2.92m0-14.64V799.6m0-14.62v-2.93m0-14.64v-29.26m0-14.63v-2.92m0-14.64V691.3l.42-5 1.22-4.8.5-1.13" stroke="#474747" stroke-width="3" fill="none"/><use xlink:href="#m" transform="matrix(1,0,0,1,3640,1306) translate(304.575 12.799999999999999)"/><use xlink:href="#n" transform="matrix(1,0,0,1,3640,1306) translate(346.575 12.799999999999999)"/><use xlink:href="#o" transform="matrix(1,0,0,1,3640,1306) translate(410.475 12.799999999999999)"/><path d="M3825 998.62l-5 2.07v58.6l5 2.07 20.3-29.87-20.3-32.88z" fill="#9d5025"/><path d="M3836.7 1059.1l-11.7 2.27v-62.75l11.7 2.2v58.3z" fill="#f58536"/><path d="M3830.54 996.3l6.16-2.52 29.26 38.82-29.26 33.6-6.16-2.53V996.3z" fill="#9d5025"/><path d="M3851.27 1062.8l-14.57 3.4v-72.42l14.57 3.4v65.62z" fill="#f58536"/><path d="M3843.56 990.94l7.73-3.2 43.14 49.1-43.15 35.4-7.74-3.2v-78.1z" fill="#9d5025"/><path d="M3869.98 1066.6l-18.7 5.65v-84.52l18.7 5.66v73.2z" fill="#f58536"/><path d="M3860 984.1l9.98-4.1 46.7 52.8-46.7 47.2-9.97-4.1v-91.8z" fill="#9d5025"/><path d="M3920 1059.3l-50.02 20.7V980l50 20.7v58.6z" fill="#f58536"/><use xlink:href="#j" transform="matrix(1,0,0,1,3820,1080) translate(3.625 14.4)"/><use xlink:href="#k" transform="matrix(1,0,0,1,3820,1080) translate(43.575 14.4)"/><use xlink:href="#l" transform="matrix(1,0,0,1,3820,1080) translate(18.549999999999997 36)"/><path d="M4125 998.62l-5 2.07v58.6l5 2.07 20.3-29.87-20.3-32.88z" fill="#9d5025"/><path d="M4136.7 1059.1l-11.7 2.27v-62.75l11.7 2.2v58.3z" fill="#f58536"/><path d="M4130.54 996.3l6.16-2.52 29.26 38.82-29.26 33.6-6.16-2.53V996.3z" fill="#9d5025"/><path d="M4151.27 1062.8l-14.57 3.4v-72.42l14.57 3.4v65.62z" fill="#f58536"/><path d="M4143.56 990.94l7.73-3.2 43.14 49.1-43.15 35.4-7.74-3.2v-78.1z" fill="#9d5025"/><path d="M4169.98 1066.6l-18.7 5.65v-84.52l18.7 5.66v73.2z" fill="#f58536"/><path d="M4160 984.1l9.98-4.1 46.7 52.8-46.7 47.2-9.97-4.1v-91.8z" fill="#9d5025"/><path d="M4220 1059.3l-50.02 20.7V980l50 20.7v58.6z" fill="#f58536"/><use xlink:href="#j" transform="matrix(1,0,0,1,4120,1080) translate(3.625 14.4)"/><use xlink:href="#k" transform="matrix(1,0,0,1,4120,1080) translate(43.575 14.4)"/><use xlink:href="#l" transform="matrix(1,0,0,1,4120,1080) translate(18.549999999999997 36)"/><path d="M4265 998.62l-5 2.07v58.6l5 2.07 20.3-29.87-20.3-32.88z" fill="#9d5025"/><path d="M4276.7 1059.1l-11.7 2.27v-62.75l11.7 2.2v58.3z" fill="#f58536"/><path d="M4270.54 996.3l6.16-2.52 29.26 38.82-29.26 33.6-6.16-2.53V996.3z" fill="#9d5025"/><path d="M4291.27 1062.8l-14.57 3.4v-72.42l14.57 3.4v65.62z" fill="#f58536"/><path d="M4283.56 990.94l7.73-3.2 43.14 49.1-43.15 35.4-7.74-3.2v-78.1z" fill="#9d5025"/><path d="M4309.98 1066.6l-18.7 5.65v-84.52l18.7 5.66v73.2z" fill="#f58536"/><path d="M4300 984.1l9.98-4.1 46.7 52.8-46.7 47.2-9.97-4.1v-91.8z" fill="#9d5025"/><path d="M4360 1059.3l-50.02 20.7V980l50 20.7v58.6z" fill="#f58536"/><use xlink:href="#j" transform="matrix(1,0,0,1,4260,1080) translate(3.625 14.4)"/><use xlink:href="#k" transform="matrix(1,0,0,1,4260,1080) translate(43.575 14.4)"/><use xlink:href="#l" transform="matrix(1,0,0,1,4260,1080) translate(18.549999999999997 36)"/><path d="M3708.2 1162.34h43.6c6.33 0 11.45 4.34 11.45 9.7v16.3c-2.26-1-7.18-2.1-14.5-2.1-3 0-5.45.18-8.38.58-4.92.68-7.5 1.86-7.5 2.6v27.7c0 .44.72 1 2.12 1.63h-26.8c-6.33 0-11.45-4.35-11.45-9.7v-37c0-5.37 5.12-9.7 11.44-9.7z" fill="#9d5025"/><path d="M3708.2 1160h43.6c6.32 0 11.44 4.35 11.44 9.7v16.3c-2.26-1-7.18-2.08-14.5-2.08-2.98 0-5.44.17-8.37.57-4.92.66-7.5 1.85-7.5 2.58v27.7c0 .44.72 1 2.1 1.63h-26.78c-6.33 0-11.45-4.33-11.45-9.7v-37c0-5.35 5.12-9.7 11.44-9.7z" fill="#f58536"/><path d="M3749.9 1191.37c-2.5 0-4.6.12-7.05.45-2.2.12-4.1-.02-6.27-.47v2.66c0 .62 2.2 1.62 6.27 2.18 2.45.34 4.56.47 7.04.45 8.65 0 13.34-1.73 13.34-2.62v-2.65zM3736.27 1199.18v18.18c0 .93 3.77 2.62 12.7 2.62 3.9.08 7.24-.23 11.04-1.06 1.78-.48 3.05-1.06 3.18-1.46v-18.08c-2.6 1.38-8 2.13-13.35 2.13h-2.2l-1.33-.18h-.66l-1.05-.06-.58-.08-1.13-.13c-2.46-.27-4.48-.83-6.63-1.87z" fill="#9d5025"/><path d="M3749.9 1188.72c-2.5 0-4.6.12-7.05.45-4.13.58-6.27 1.58-6.27 2.18 0 .6 2.2 1.62 6.27 2.18 2.45.33 4.56.47 7.04.45 8.65 0 13.34-1.73 13.34-2.63 0-.9-4.7-2.63-13.35-2.63zM3736.27 1196.5v18.2c0 .93 3.77 2.62 12.7 2.62 3.9.08 7.24-.23 11.04-1.06 1.78-.48 3.05-1.07 3.18-1.46v-18.08c-2.6 1.38-8 2.12-13.35 2.12h-2.2l-1.33-.18h-.66l-1.05-.17h-.58l-1.13-.13c-2.46-.25-4.48-.82-6.63-1.86z" fill="#f58536"/><path d="M3708.2 1216.4h26.75v2.32h-26.74c-6.33 0-11.45-4.35-11.45-9.7v-2.34c0 5.37 5.12 9.7 11.46 9.7z" fill="#9d5025"/><use xlink:href="#p" transform="matrix(1,0,0,1,3696.75,1220.008278344331) translate(8.524999999999999 14.4)"/><use xlink:href="#q" transform="matrix(1,0,0,1,3696.75,1220.008278344331) translate(38.475 14.4)"/><use xlink:href="#r" transform="matrix(1,0,0,1,3696.75,1220.008278344331) translate(0.02499999999999858 36)"/><path d="M3848.2 1162.34h43.6c6.33 0 11.45 4.34 11.45 9.7v16.3c-2.26-1-7.18-2.1-14.5-2.1-3 0-5.45.18-8.38.58-4.92.68-7.5 1.86-7.5 2.6v27.7c0 .44.72 1 2.12 1.63h-26.8c-6.33 0-11.45-4.35-11.45-9.7v-37c0-5.37 5.12-9.7 11.44-9.7z" fill="#9d5025"/><path d="M3848.2 1160h43.6c6.32 0 11.44 4.35 11.44 9.7v16.3c-2.26-1-7.18-2.08-14.5-2.08-2.98 0-5.44.17-8.37.57-4.92.66-7.5 1.85-7.5 2.58v27.7c0 .44.72 1 2.1 1.63h-26.78c-6.33 0-11.45-4.33-11.45-9.7v-37c0-5.35 5.12-9.7 11.44-9.7z" fill="#f58536"/><path d="M3889.9 1191.37c-2.5 0-4.6.12-7.05.45-2.2.12-4.1-.02-6.27-.47v2.66c0 .62 2.2 1.62 6.27 2.18 2.45.34 4.56.47 7.04.45 8.65 0 13.34-1.73 13.34-2.62v-2.65zM3876.27 1199.18v18.18c0 .93 3.77 2.62 12.7 2.62 3.9.08 7.24-.23 11.04-1.06 1.78-.48 3.05-1.06 3.18-1.46v-18.08c-2.6 1.38-8 2.13-13.35 2.13h-2.2l-1.33-.18h-.66l-1.05-.06-.58-.08-1.13-.13c-2.46-.27-4.48-.83-6.63-1.87z" fill="#9d5025"/><path d="M3889.9 1188.72c-2.5 0-4.6.12-7.05.45-4.13.58-6.27 1.58-6.27 2.18 0 .6 2.2 1.62 6.27 2.18 2.45.33 4.56.47 7.04.45 8.65 0 13.34-1.73 13.34-2.63 0-.9-4.7-2.63-13.35-2.63zM3876.27 1196.5v18.2c0 .93 3.77 2.62 12.7 2.62 3.9.08 7.24-.23 11.04-1.06 1.78-.48 3.05-1.07 3.18-1.46v-18.08c-2.6 1.38-8 2.12-13.35 2.12h-2.2l-1.33-.18h-.66l-1.05-.17h-.58l-1.13-.13c-2.46-.25-4.48-.82-6.63-1.86z" fill="#f58536"/><path d="M3848.2 1216.4h26.75v2.32h-26.74c-6.33 0-11.45-4.35-11.45-9.7v-2.34c0 5.37 5.12 9.7 11.46 9.7z" fill="#9d5025"/><use xlink:href="#p" transform="matrix(1,0,0,1,3836.75,1220.008278344331) translate(8.524999999999999 14.4)"/><use xlink:href="#q" transform="matrix(1,0,0,1,3836.75,1220.008278344331) translate(38.475 14.4)"/><use xlink:href="#r" transform="matrix(1,0,0,1,3836.75,1220.008278344331) translate(0.02499999999999858 36)"/><path d="M4148.2 1162.34h43.6c6.33 0 11.45 4.34 11.45 9.7v16.3c-2.26-1-7.18-2.1-14.5-2.1-3 0-5.45.18-8.38.58-4.92.68-7.5 1.86-7.5 2.6v27.7c0 .44.72 1 2.12 1.63h-26.8c-6.33 0-11.45-4.35-11.45-9.7v-37c0-5.37 5.12-9.7 11.44-9.7z" fill="#9d5025"/><path d="M4148.2 1160h43.6c6.32 0 11.44 4.35 11.44 9.7v16.3c-2.26-1-7.18-2.08-14.5-2.08-2.98 0-5.44.17-8.37.57-4.92.66-7.5 1.85-7.5 2.58v27.7c0 .44.72 1 2.1 1.63h-26.78c-6.33 0-11.45-4.33-11.45-9.7v-37c0-5.35 5.12-9.7 11.44-9.7z" fill="#f58536"/><path d="M4189.9 1191.37c-2.5 0-4.6.12-7.05.45-2.2.12-4.1-.02-6.27-.47v2.66c0 .62 2.2 1.62 6.27 2.18 2.45.34 4.56.47 7.04.45 8.65 0 13.34-1.73 13.34-2.62v-2.65zM4176.27 1199.18v18.18c0 .93 3.77 2.62 12.7 2.62 3.9.08 7.24-.23 11.04-1.06 1.78-.48 3.05-1.06 3.18-1.46v-18.08c-2.6 1.38-8 2.13-13.35 2.13h-2.2l-1.33-.18h-.66l-1.05-.06-.58-.08-1.13-.13c-2.46-.27-4.48-.83-6.63-1.87z" fill="#9d5025"/><path d="M4189.9 1188.72c-2.5 0-4.6.12-7.05.45-4.13.58-6.27 1.58-6.27 2.18 0 .6 2.2 1.62 6.27 2.18 2.45.33 4.56.47 7.04.45 8.65 0 13.34-1.73 13.34-2.63 0-.9-4.7-2.63-13.35-2.63zM4176.27 1196.5v18.2c0 .93 3.77 2.62 12.7 2.62 3.9.08 7.24-.23 11.04-1.06 1.78-.48 3.05-1.07 3.18-1.46v-18.08c-2.6 1.38-8 2.12-13.35 2.12h-2.2l-1.33-.18h-.66l-1.05-.17h-.58l-1.13-.13c-2.46-.25-4.48-.82-6.63-1.86z" fill="#f58536"/><path d="M4148.2 1216.4h26.75v2.32h-26.74c-6.33 0-11.45-4.35-11.45-9.7v-2.34c0 5.37 5.12 9.7 11.46 9.7z" fill="#9d5025"/><use xlink:href="#p" transform="matrix(1,0,0,1,4136.75,1220.008278344331) translate(8.524999999999999 14.4)"/><use xlink:href="#q" transform="matrix(1,0,0,1,4136.75,1220.008278344331) translate(38.475 14.4)"/><use xlink:href="#r" transform="matrix(1,0,0,1,4136.75,1220.008278344331) translate(0.02499999999999858 36)"/><path d="M4288.2 1162.34h43.6c6.33 0 11.45 4.34 11.45 9.7v16.3c-2.26-1-7.18-2.1-14.5-2.1-3 0-5.45.18-8.38.58-4.92.68-7.5 1.86-7.5 2.6v27.7c0 .44.72 1 2.12 1.63h-26.8c-6.33 0-11.45-4.35-11.45-9.7v-37c0-5.37 5.12-9.7 11.44-9.7z" fill="#9d5025"/><path d="M4288.2 1160h43.6c6.32 0 11.44 4.35 11.44 9.7v16.3c-2.26-1-7.18-2.08-14.5-2.08-2.98 0-5.44.17-8.37.57-4.92.66-7.5 1.85-7.5 2.58v27.7c0 .44.72 1 2.1 1.63h-26.78c-6.33 0-11.45-4.33-11.45-9.7v-37c0-5.35 5.12-9.7 11.44-9.7z" fill="#f58536"/><path d="M4329.9 1191.37c-2.5 0-4.6.12-7.05.45-2.2.12-4.1-.02-6.27-.47v2.66c0 .62 2.2 1.62 6.27 2.18 2.45.34 4.56.47 7.04.45 8.65 0 13.34-1.73 13.34-2.62v-2.65zM4316.27 1199.18v18.18c0 .93 3.77 2.62 12.7 2.62 3.9.08 7.24-.23 11.04-1.06 1.78-.48 3.05-1.06 3.18-1.46v-18.08c-2.6 1.38-8 2.13-13.35 2.13h-2.2l-1.33-.18h-.66l-1.05-.06-.58-.08-1.13-.13c-2.46-.27-4.48-.83-6.63-1.87z" fill="#9d5025"/><path d="M4329.9 1188.72c-2.5 0-4.6.12-7.05.45-4.13.58-6.27 1.58-6.27 2.18 0 .6 2.2 1.62 6.27 2.18 2.45.33 4.56.47 7.04.45 8.65 0 13.34-1.73 13.34-2.63 0-.9-4.7-2.63-13.35-2.63zM4316.27 1196.5v18.2c0 .93 3.77 2.62 12.7 2.62 3.9.08 7.24-.23 11.04-1.06 1.78-.48 3.05-1.07 3.18-1.46v-18.08c-2.6 1.38-8 2.12-13.35 2.12h-2.2l-1.33-.18h-.66l-1.05-.17h-.58l-1.13-.13c-2.46-.25-4.48-.82-6.63-1.86z" fill="#f58536"/><path d="M4288.2 1216.4h26.75v2.32h-26.74c-6.33 0-11.45-4.35-11.45-9.7v-2.34c0 5.37 5.12 9.7 11.46 9.7z" fill="#9d5025"/><use xlink:href="#p" transform="matrix(1,0,0,1,4276.75,1220.008278344331) translate(8.524999999999999 14.4)"/><use xlink:href="#q" transform="matrix(1,0,0,1,4276.75,1220.008278344331) translate(38.475 14.4)"/><use xlink:href="#r" transform="matrix(1,0,0,1,4276.75,1220.008278344331) translate(0.02499999999999858 36)"/><path d="M3730 1081v60.5" stroke="#000" stroke-width="2" fill="none"/><path d="M3731 1081.02h-2v-1.42l.98.4 1.02-.42z"/><path d="M3730 1156.77l-4.64-14.26h9.28z" stroke="#000" stroke-width="2"/><path d="M4170 1081v60.5" stroke="#000" stroke-width="2" fill="none"/><path d="M4171 1081.02h-2v-1.42l.98.4 1.02-.42z"/><path d="M4170 1156.77l-4.64-14.26h9.28z" stroke="#000" stroke-width="2"/><path d="M4310 1081v60.5" stroke="#000" stroke-width="2" fill="none"/><path d="M4311 1081.02h-2v-1.42l.98.4 1.02-.42z"/><path d="M4310 1156.77l-4.64-14.26h9.28z" stroke="#000" stroke-width="2"/><path d="M3910.33 320.3V315c0-2.76-2.24-5-5-5H3706c-2.76 0-5-2.24-5-5v-46.5" stroke="#000" stroke-width="2" fill="none"/><path d="M3911.33 321.34l-1-.04h-.53l-.47.02v-1.05h2z"/><path d="M3701 243.22l4.64 14.27h-9.28z" stroke="#000" stroke-width="2"/><path d="M3910.33 320.3V315c0-2.76 2.24-5 5-5H4116c2.76 0 5-2.24 5-5v-46.5" stroke="#000" stroke-width="2" fill="none"/><path d="M3911.33 321.34l-1-.04h-.53l-.47.02v-1.05h2z"/><path d="M4121 243.22l4.64 14.27h-9.28z" stroke="#000" stroke-width="2"/><path d="M3910.33 320.3v-61.8" stroke="#000" stroke-width="2" fill="none"/><path d="M3911.33 321.34l-1-.04h-.53l-.47.02v-1.05h2z"/><path d="M3910.33 243.22l4.64 14.27h-9.27z" stroke="#000" stroke-width="2"/><path d="M4020 658.8V555.56c0-2.77-2.24-5-5-5h-99.67c-2.76 0-5-2.24-5-5V459.8" stroke="#000" stroke-width="2" fill="none"/><path d="M4021 659.8h-2v-1.02h2z"/><path d="M3910.33 444.52l4.64 14.27h-9.27z" stroke="#000" stroke-width="2"/><path d="M4020 1337.5" stroke="#000" stroke-width="2" fill="none"/><path/><path d="M4016.76 1337.5l-14.26 4.64v-9.28z" stroke="#000" stroke-width="2"/><path d="M3969.5 1810H3735c-2.76 0-5-2.24-5-5v-567.75" stroke="#000" stroke-width="2" fill="none"/><path d="M3970.5 1811h-1.03v-2h1.03z"/><path d="M3730 1221.98l4.64 14.27h-9.28z" stroke="#000" stroke-width="2"/><path d="M3969.5 1810H3875c-2.76 0-5-2.24-5-5v-567.75" stroke="#000" stroke-width="2" fill="none"/><path d="M3970.5 1811h-1.03v-2h1.03z"/><path d="M3870 1221.98l4.64 14.27h-9.28z" stroke="#000" stroke-width="2"/><path d="M4070.5 1810h94.5c2.76 0 5-2.24 5-5v-567.75" stroke="#000" stroke-width="2" fill="none"/><path d="M4070.53 1811h-1.03v-2h1.03z"/><path d="M4170 1221.98l4.64 14.27h-9.28z" stroke="#000" stroke-width="2"/><path d="M4070.5 1810H4305c2.76 0 5-2.24 5-5v-567.75" stroke="#000" stroke-width="2" fill="none"/><path d="M4070.53 1811h-1.03v-2h1.03z"/><path d="M4310 1221.98l4.64 14.27h-9.28z" stroke="#000" stroke-width="2"/><path d="M3994.87 716.8l-3.62 1.6v45.52l3.62 1.6 14.64-23.2-14.63-25.53z" fill="#9d5025"/><path d="M4003.3 763.77l-8.44 1.76V716.8l8.43 1.7v45.27z" fill="#f58536"/><path d="M3998.86 715l4.44-1.97 21.12 30.15-21.12 26.1-4.44-1.97V715z" fill="#9d5025"/><path d="M4013.82 766.64l-10.52 2.64v-56.25l10.52 2.64v50.97z" fill="#f58536"/><path d="M4008.25 710.82l5.58-2.5 31.14 38.15-31.14 27.5-5.58-2.48V710.8z" fill="#9d5025"/><path d="M4027.32 769.58l-13.5 4.4v-65.65l13.5 4.4v56.85z" fill="#f58536"/><path d="M4020.12 705.5l7.2-3.17 33.7 41-33.7 36.67-7.2-3.18v-71.3z" fill="#9d5025"/><path d="M4063.4 763.92L4027.33 780v-77.67l36.1 16.07v45.52z" fill="#f58536"/><use xlink:href="#s" transform="matrix(1,0,0,1,3991.249293998043,779.9999999999999) translate(3.5249999999999986 14.4)"/><use xlink:href="#t" transform="matrix(1,0,0,1,3991.249293998043,779.9999999999999) translate(19.025 36)"/><path d="M3969.4 930H3875c-2.76 0-5 2.24-5 5v26.5" stroke="#000" stroke-width="2" fill="none"/><path d="M3970.53 931h-1.17v-2h.9z"/><path d="M3870 976.77l-4.64-14.26h9.28z" stroke="#000" stroke-width="2"/><path d="M4084.83 922.36c0 31.8-25.76 57.63-57.5 57.63s-57.5-25.83-57.5-57.64c0-31.8 25.76-57.63 57.5-57.63s57.5 25.82 57.5 57.63z" fill="#9d5025"/><path d="M4084.83 917.63c0 31.8-25.76 57.63-57.5 57.63s-57.5-25.82-57.5-57.63c0-31.8 25.76-57.63 57.5-57.63s57.5 25.82 57.5 57.63z" fill="#f58536"/><path d="M4022.6 883.3h9.45v69.04h-9.44V883.3z" fill="#fff"/><path d="M4015.56 886.72l11.77-20.42 11.77 20.42h-23.54zM4015.56 948.9l11.77 20.42 11.77-20.42h-23.54zM4054 912.9h24.36v9.46H4054v-9.46z" fill="#fff"/><path d="M4057.44 929.42l-20.38-11.8 20.38-11.8v23.6zM3976.27 912.9h24.35v9.46h-24.35v-9.46z" fill="#fff"/><path d="M3997.2 929.42l20.38-11.8-20.38-11.8v23.6z" fill="#fff"/><use xlink:href="#u" transform="matrix(1,0,0,1,3969.832862665362,980) translate(34.05 14.4)"/><path d="M4085.28 930h83.62c2.76 0 5 2.24 5 5v28.12" stroke="#000" stroke-width="2" fill="none"/><path d="M4085.3 931h-1.15l.26-2h.9z"/><path d="M4173.9 978.4l-4.64-14.28h9.27z" stroke="#000" stroke-width="2"/><path d="M4085.28 930H4305c2.76 0 5 2.24 5 5v26.5" stroke="#000" stroke-width="2" fill="none"/><path d="M4085.3 931h-1.15l.26-2h.9z"/><path d="M4310 976.77l-4.64-14.26h9.28z" stroke="#000" stroke-width="2"/><path d="M4027.33 781v60.5" stroke="#000" stroke-width="2" fill="none"/><path d="M4028.33 781.02h-2v-1.46l1 .44 1-.45z"/><path d="M4027.33 856.76l-4.63-14.26h9.27z" stroke="#000" stroke-width="2"/><path d="M3969.4 930H3735c-2.76 0-5 2.24-5 5v26.5" stroke="#000" stroke-width="2" fill="none"/><path d="M3970.53 931h-1.17v-2h.9z"/><path d="M3730 976.77l-4.64-14.26h9.28z" stroke="#000" stroke-width="2"/><path d="M3994 1792.72l-13.63-.72v-24.04l13.64 2.62v22.14z" fill="#f58536"/><path d="M4069.34 1793l-12.77.44-10.74-.73 13.5-.72 10 1.02z" fill="#6b3a19"/><path d="M4045.83 1778l13.78-2.04v16.02l-13.77.72V1778zM3970.5 1817.77l49.5 12.66V1800h-49.5v17.77zM4005.2 1837.57l14.8 5.38V1860l-14.8-7.43v-15zM4005.2 1747.43l14.8-7.43v48.08l-14.8 1.43v-42.07zM3970.5 1793l9.87-1.02v-24.02l-9.87 3.93v21.1z" fill="#9d5025"/><path d="M4069.5 1800H4020v30.43l49.5-12.66V1800zM4034.8 1747.43L4020 1740v48.08l14.8 1.43v-42.07zM4069.5 1778.88l-9.88-2.92v16l9.87 1.03v-14.12zM4034.8 1837.57l-14.8 5.38V1860l14.8-7.43v-15z" fill="#f58536"/><path d="M4034.8 1837.57l-14.8-4.08-14.8 4.07 14.8 5.38 14.8-5.38z" fill="#fbbf93"/><path d="M4005.2 1789.5l14.8-1.45 14.8 1.45-14.8 1.16-14.8-1.16zM3970.5 1793l9.73-1.02 13.78.73-10.6.74-12.9-.44z" fill="#6b3a19"/><use xlink:href="#v" transform="matrix(1,0,0,1,3970.5,1860) translate(7.875 14.4)"/><use xlink:href="#w" transform="matrix(1,0,0,1,3970.5,1860) translate(53.175 14.4)"/><path d="M4006.34 1479.8l-12.4-3.46-11.72-13.33 13.08 1.1 11.04 15.7z" fill="#b8852e"/><path d="M4006.35 1479.8l8.86-18.54-8.27-1.16-11.64 4 11.05 15.7z" fill="#d9a741"/><path d="M3977.68 1471.02l-6.97-1.96-7.66-8.74 8.15 1.28 6.48 9.42z" fill="#b8852e"/><path d="M3977.67 1471.02l5-10.44-4.66-.66-6.82 1.67 6.5 9.42z" fill="#d9a741"/><path d="M3960 1460.58l7.14 1.47 34.86-30.28-34.86-33.88-7.14 3.58v59.1z" fill="#876929"/><path d="M3994.64 1403.86v55.63l-27.52 2.55v-64.16l27.52 5.96z" fill="#d9a741"/><path d="M3975.9 1463.94l12.23 2.46 33.7-39-33.7-40.1-12.22 6.16v70.48z" fill="#876929"/><path d="M4057.85 1409.36v48.1l-69.72 8.94v-79.1l69.72 22.06z" fill="#d9a741"/><path d="M4045.22 1491.25l-17.6-4.92-16.66-18.96 18.57 1.55 15.7 22.33z" fill="#b8852e"/><path d="M4045.22 1491.25l12.62-26.33-11.8-1.68-16.5 5.7 15.68 22.3z" fill="#d9a741"/><path d="M4002 1469.03l17.95 3.44 24.37-50.6-24.37-50.6-17.95 9.1v88.66z" fill="#876929"/><path d="M4019.96 1472.47l60.03-11.94v-59.3l-60.04-29.97v101.2z" fill="#d9a741"/><use xlink:href="#x" transform="matrix(1,0,0,1,3960,1491.26) translate(6.049999999999997 14.4)"/><use xlink:href="#y" transform="matrix(1,0,0,1,3960,1491.26) translate(77 14.4)"/><path d="M3870 1081v60.5" stroke="#000" stroke-width="2" fill="none"/><path d="M3871 1081.02h-2v-1.42l.98.4 1.02-.42z"/><path d="M3870 1156.77l-4.64-14.26h9.28z" stroke="#000" stroke-width="2"/><path d="M3970.5 1635.17l6.3 3.15 11.13-38.25-11.14-38.4-6.3 3.14v70.37z" fill="#9d5025"/><path d="M3988.98 1564.55l-12.18-2.83v76.6l12.18-2.84v-70.93z" fill="#f58536"/><path d="M3984.37 1557.9l9.25-4.7 11.54 46.88-11.54 46.68-9.25-4.67v-84.2z" fill="#9d5025"/><path d="M4012.57 1640.5l-18.94 6.08v-93.37l18.94 6.08v81.23z" fill="#f58536"/><path d="M4055.6 1569.63h7.56v58.23l-7.57-.4v-57.83z" fill="#9d5025"/><path d="M4026.2 1570.47l8.5-4.4 27.87 3.56.82 7.45-7.64 1.08-29.57-7.7z" fill="#6b3a19"/><path d="M4026.43 1629.5l8.5 4.4 28.7-11-7.63-1.07-29.57 7.68z" fill="#fbbf93"/><path d="M4028.58 1617.15l15.17 2.04v-38.4l-15.17 2.03v34.32z" fill="#9d5025"/><path d="M4005.16 1652.56l14.8 7.44 12.72-60.12-12.7-59.88-14.82 7.44v105.12z" fill="#9d5025"/><path d="M4020 1540v120l49.5-24.84v-70.32zm43.15 83.04l-28.36 8.52v-63.12l28.35 8.52z" fill="#f58536"/><path d="M4043.75 1580.8v38.5l15.78-19.25-15.78-19.25z" fill="#f58536"/><use xlink:href="#z" transform="matrix(1,0,0,1,3970.5,1660) translate(29.35 14.4)"/><use xlink:href="#A" transform="matrix(1,0,0,1,3970.5,1660) translate(17.025 36)"/><path d="M3764.18 1200h16c2.76 0 5 2.25 5 5v80c0 2.76 2.24 5 5 5H4015c2.76 0 5 2.24 5 5v57.78" stroke="#000" stroke-width="2" fill="none"/><path d="M3764.2 1201h-1.02v-2h1.03z"/><path d="M4020 1368.04l-4.64-14.26h9.28z" stroke="#000" stroke-width="2"/><path d="M3904.18 1200H4015c2.76 0 5 2.25 5 5v147.78" stroke="#000" stroke-width="2" fill="none"/><path d="M3904.2 1201h-1.02v-2h1.03z"/><path d="M4020 1368.04l-4.64-14.26h9.28z" stroke="#000" stroke-width="2"/><path d="M4135.75 1200H4025c-2.76 0-5 2.25-5 5v147.78" stroke="#000" stroke-width="2" fill="none"/><path d="M4136.75 1201h-1.03v-2h1.03z"/><path d="M4020 1368.04l-4.64-14.26h9.28z" stroke="#000" stroke-width="2"/><path d="M4275.75 1200h-16c-2.76 0-5 2.25-5 5v80c0 2.76-2.24 5-5 5H4025c-2.76 0-5 2.24-5 5v57.78" stroke="#000" stroke-width="2" fill="none"/><path d="M4276.75 1201h-1.03v-2h1.03z"/><path d="M4020 1368.04l-4.64-14.26h9.28z" stroke="#000" stroke-width="2"/><path d="M4020 1478.66v42.84" stroke="#000" stroke-width="2" fill="none"/><path/><path d="M4020 1536.77l-4.64-14.27h9.28z" stroke="#000" stroke-width="2"/><path d="M4020 1661v38.33c0 .74-.6 1.33-1.33 1.33-.74 0-1.34.6-1.34 1.34v20.83" stroke="#000" stroke-width="2" fill="none"/><path d="M4021 1661.02h-2v-1.5l.97.48.02-.1v.1l1-.5z"/><path d="M4017.33 1738.1l-4.63-14.27h9.27z" stroke="#000" stroke-width="2"/><path d="M4687 1793.2l-13.4-14.63-18.84 48.1 18.85 48.12 13.4-14.63v-66.98z" fill="#2e73b8"/><path d="M4650.22 1886.7l23.4-11.87v-96.24l-23.4-11.9-27.8 60 27.8 60z" fill="#5294cf"/><path d="M4616.78 1886.7h33.43v-120h-33.42l-20.07 60 20.08 60z" fill="#2e73b8"/><path d="M4593.38 1874.83l23.4 11.88v-120l-23.4 11.9-10.36 48.1 10.36 48.13z" fill="#205b99"/><path d="M4580 1860.16l13.38 14.62v-96.2l-13.38 14.6v66.98z" fill="#19486f"/><use xlink:href="#s" transform="matrix(1,0,0,1,4580,1886.7100816326533) translate(20.525 14.4)"/><use xlink:href="#B" transform="matrix(1,0,0,1,4580,1886.7100816326533) translate(34.55 36)"/><path d="M4020 1861v34c0 2.75 2.24 5 5 5h510c2.76 0 5-2.25 5-5v-53.3c0-2.75 2.24-5 5-5h16.5" stroke="#000" stroke-width="2" fill="none"/><path d="M4020 1860l1-.5v1.5h-2v-1.5l1 .5v-3z"/><path d="M4576.76 1836.7l-14.26 4.65v-9.28z" stroke="#000" stroke-width="2"/><path d="M5608.92 712.1h-38c-2.05 0-3.68 1.63-3.68 3.64h45.3c0-2-1.62-3.63-3.62-3.64zM5570.93 719.37h38.02c2 0 3.62-1.62 3.62-3.6h-45.3c.03 2 1.67 3.6 3.66 3.6z" fill-opacity="0"/><path d="M5612.54 715.76c0 2-1.56 3.62-3.6 3.62h-38.04c-2.04.02-3.6-1.6-3.72-3.62h-65.03v3.62c0 5.03 4.08 9.1 9.12 9.1h101.75c5.04.02 9.12-4.05 9.12-9.1v-3.62zM5618.1 672.46l-5.85 6.44c0 2.3-1.92 4.14-4.2 4.14h-91.93c-2.28-.02-4.2-1.86-4.2-4.14l-4.9-6.44h-4.8v6.44c0 7.62 6.24 13.78 13.9 13.76h91.94c7.66.02 13.88-6.14 13.88-13.76v-6.44z" fill="#7d7c7c"/><path d="M5613.03 697.66c4.92-.03 9.12 4 9.12 9.02v7.35c0 5.06-4.08 9.1-9.12 9.1h-101.76c-5.04 0-9.12-4.04-9.12-9.06v-7.33c0-5 4.08-9.08 9.12-9.05zm-4.08 16.38c2.04 0 3.6-1.63 3.6-3.64 0-2-1.56-3.65-3.6-3.65h-38.04c-2.03 0-3.6 1.64-3.6 3.65 0 2 1.57 3.64 3.6 3.64h38.05M5608.06 608.5c7.66 0 13.88 6.15 13.88 13.7v51.4c0 7.57-6.22 13.72-13.88 13.72h-91.94c-7.66 0-13.9-6.15-13.9-13.72v-51.4c0-7.55 6.24-13.7 13.9-13.7zm4.2 65.1v-51.4c0-2.27-1.93-4.08-4.2-4.08h-91.94c-2.28 0-4.2 1.8-4.2 4.1v51.38c0 2.2 1.92 4.1 4.2 4.1h91.94c2.27 0 4.2-1.8 4.2-4.1" fill="#d2d3d3"/><use xlink:href="#C" transform="matrix(1,0,0,1,5502.147324225092,728.4999999999999) translate(20.075000000000003 14.4)"/><use xlink:href="#D" transform="matrix(1,0,0,1,5502.147324225092,728.4999999999999) translate(54.075 14.4)"/><path d="M5608.92 910.75h-38c-2.05 0-3.68 1.63-3.68 3.65h45.3c0-2-1.62-3.64-3.62-3.65zM5570.93 918.02h38.02c2 0 3.62-1.6 3.62-3.6h-45.3c.03 2 1.67 3.6 3.66 3.6z" fill-opacity="0"/><path d="M5612.54 914.4c0 2.02-1.56 3.64-3.6 3.64h-38.04c-2.04 0-3.6-1.6-3.72-3.63h-65.03v3.64c0 5.03 4.08 9.1 9.12 9.1h101.75c5.04 0 9.12-4.06 9.12-9.1v-3.63zM5618.1 871.1l-5.85 6.46c0 2.3-1.92 4.14-4.2 4.14h-91.93c-2.28-.02-4.2-1.86-4.2-4.14l-4.9-6.45h-4.8v6.46c0 7.6 6.24 13.77 13.9 13.75h91.94c7.66.03 13.88-6.13 13.88-13.74v-6.45z" fill="#7d7c7c"/><path d="M5613.03 896.3c4.92 0 9.12 4 9.12 9.03v7.37c0 5.04-4.08 9.1-9.12 9.1h-101.76c-5.04 0-9.12-4.06-9.12-9.08v-7.34c0-5 4.08-9.07 9.12-9.04zm-4.08 16.4c2.04 0 3.6-1.64 3.6-3.65 0-2-1.56-3.64-3.6-3.64h-38.04c-2.03 0-3.6 1.64-3.6 3.65 0 2 1.57 3.65 3.6 3.65h38.05M5608.06 807.15c7.66 0 13.88 6.15 13.88 13.72v51.4c0 7.55-6.22 13.7-13.88 13.7h-91.94c-7.66 0-13.9-6.15-13.9-13.7v-51.4c0-7.57 6.24-13.72 13.9-13.72zm4.2 65.1v-51.38c0-2.3-1.93-4.1-4.2-4.1h-91.94c-2.28 0-4.2 1.8-4.2 4.1v51.4c0 2.2 1.92 4.08 4.2 4.08h91.94c2.27 0 4.2-1.8 4.2-4.1" fill="#d2d3d3"/><use xlink:href="#C" transform="matrix(1,0,0,1,5502.147324225092,927.1539591836735) translate(22.049999999999997 14.4)"/><use xlink:href="#E" transform="matrix(1,0,0,1,5502.147324225092,927.1539591836735) translate(56.05 14.4)"/><path d="M5608.92 1104.04h-38c-2.05 0-3.68 1.63-3.68 3.65h45.3c0-2-1.62-3.65-3.62-3.66zM5570.93 1111.3h38.02c2 0 3.62-1.6 3.62-3.6h-45.3c.03 2 1.67 3.6 3.66 3.6z" fill-opacity="0"/><path d="M5612.54 1107.7c0 2-1.56 3.63-3.6 3.63h-38.04c-2.04 0-3.6-1.6-3.72-3.63h-65.03v3.63c0 5.03 4.08 9.1 9.12 9.1h101.75c5.04 0 9.12-4.06 9.12-9.1v-3.63zM5618.1 1064.4l-5.85 6.45c0 2.3-1.92 4.14-4.2 4.14h-91.93c-2.28-.03-4.2-1.87-4.2-4.15l-4.9-6.45h-4.8v6.45c0 7.6 6.24 13.77 13.9 13.75h91.94c7.66.02 13.88-6.14 13.88-13.75v-6.45z" fill="#7d7c7c"/><path d="M5613.03 1089.6c4.92-.02 9.12 4 9.12 9.02v7.35c0 5.06-4.08 9.1-9.12 9.1h-101.76c-5.04 0-9.12-4.04-9.12-9.06V1098.7c0-5 4.08-9.08 9.12-9.05zm-4.08 16.38c2.04 0 3.6-1.63 3.6-3.64 0-2-1.56-3.64-3.6-3.64h-38.04c-2.03 0-3.6 1.63-3.6 3.64 0 2 1.57 3.64 3.6 3.64h38.05M5608.06 1000.44c7.66 0 13.88 6.15 13.88 13.72v51.4c0 7.55-6.22 13.7-13.88 13.7h-91.94c-7.66 0-13.9-6.15-13.9-13.7v-51.4c0-7.57 6.24-13.72 13.9-13.72zm4.2 65.1v-51.38c0-2.3-1.93-4.1-4.2-4.1h-91.94c-2.28 0-4.2 1.8-4.2 4.1v51.4c0 2.2 1.92 4.08 4.2 4.08h91.94c2.27 0 4.2-1.8 4.2-4.1" fill="#d2d3d3"/><use xlink:href="#C" transform="matrix(1,0,0,1,5502.147324225092,1120.4438775510203) translate(22.049999999999997 14.4)"/><use xlink:href="#E" transform="matrix(1,0,0,1,5502.147324225092,1120.4438775510203) translate(56.05 14.4)"/><path d="M5291.6 870.86c0 31.8-25.77 57.63-57.5 57.63-31.75 0-57.5-25.83-57.5-57.64 0-31.8 25.75-57.63 57.5-57.63 31.73 0 57.5 25.82 57.5 57.63z" fill="#9d5025"/><path d="M5176.6 866.12h115v4.73h-115v-4.73z" fill="#9d5025"/><path d="M5291.6 866.13c0 31.8-25.77 57.63-57.5 57.63-31.75 0-57.5-25.82-57.5-57.63 0-31.8 25.75-57.63 57.5-57.63 31.73 0 57.5 25.82 57.5 57.63z" fill="#f58536"/><path d="M5190.74 871.86v-1.5c.43-7 4.33-12.8 10.65-15.86.6-12.86 11.5-22.8 24.42-22.12 8.05.38 14.8 4.5 18.88 11.47 6.58-2.77 14.12.28 16.9 6.82.42.95.68 1.72.86 2.67 8.66 1.72 14.9 10.03 14.9 17.02v1.4c0 8.53-8.84 16-18.9 16h-48.93c-9.96.07-18.8-7.42-18.8-15.9z" fill="#fff"/><path d="M5245.86 849.98l-3.67 2.54-1.88-4.06c-2.85-6.34-8.7-10.23-15.66-10.27h-.07c-9.53 0-17.32 7.77-17.32 17.38v3.23l-2.7.8c-4.56 1.83-7.56 5.85-7.93 10.8v1.4c0 4.66 5.7 10.08 12.96 10.08h49c7.34 0 12.96-5.42 12.96-10.1v-1.4c0-4.7-5.25-10.87-11.3-11.35l-3.3-.26-.23-3.28c0-1.4-.45-2.54-1.2-3.68-2.18-3.2-6.52-3.98-9.67-1.8z" fill="#f58536"/><use xlink:href="#f" transform="matrix(1,0,0,1,5176.590785001958,928.4999999999999) translate(27.025 14.4)"/><use xlink:href="#g" transform="matrix(1,0,0,1,5176.590785001958,928.4999999999999) translate(24.025 36)"/><path d="M5501.23 678.5h-99.6c-2.76 0-5 2.24-5 5v190c0 2.76-2.24 5-5 5h-82.1" stroke="#000" stroke-width="2" fill="none"/><path d="M5502.23 678.9l.08.6h-1.1v-2h1.03z"/><path d="M5294.27 878.5l14.27-4.64v9.28z" stroke="#000" stroke-width="2"/><path d="M5501.23 877.15H5397.3c-.37 0-.67.3-.67.68 0 .37-.3.67-.67.67h-86.42" stroke="#000" stroke-width="2" fill="none"/><path d="M5502.23 877.56l.08.6h-1.1v-2h1.03z"/><path d="M5294.27 878.5l14.27-4.64v9.28z" stroke="#000" stroke-width="2"/><path d="M5501.23 1070.44h-99.6c-2.76 0-5-2.23-5-5V883.5c0-2.76-2.24-5-5-5h-82.1" stroke="#000" stroke-width="2" fill="none"/><path d="M5502.23 1070.85l.08.6h-1.1v-2h1.03z"/><path d="M5294.27 878.5l14.27-4.64v9.28z" stroke="#000" stroke-width="2"/><path d="M5176.15 878.5h-44.8c-2.75 0-5-2.24-5-5V655.83c0-2.77-2.23-5-5-5h-27.27" stroke="#000" stroke-width="2" fill="none"/><path d="M5177.3 879.5h-1.18v-2h.9z"/><path d="M5078.82 650.83l14.26-4.64v9.26z" stroke="#000" stroke-width="2"/><path d="M5075.58 648.32l-24.04-.98-15.57.98 25.7 35.1 13.9-35.1z" fill="#fad791"/><path d="M5075.58 633.8l-24.04.98-15.57-.98 25.7-35.1 13.9 35.1zM4976.6 633.74l24.03 1.04 15.57-1-25.7-34.92-13.9 34.88z" fill="#624a1e"/><path d="M4976.6 648.32l24.03-.98 15.57.98-25.7 35.14-13.9-35.14z" fill="#fad791"/><path d="M5061.68 632.4l13.9 1.4v-28.12l-13.9-7v33.7z" fill="#d9a741"/><path d="M5035.97 605.68l25.7-7v33.7l-25.7 1.4v-28.1z" fill="#876929"/><path d="M5026.1 601.57l27.83 9.15v13.9l-27.84-4.94v-18.1z" fill="#d9a741"/><path d="M5013.55 622l12.76-2.27 27.63 4.9-12.36 1.35-28.02-4z" fill="#624a1e"/><path d="M4990.5 632.37l-13.9 1.36v-28.2l13.9-6.87v33.7z" fill="#876929"/><path d="M5016.2 605.65l-25.7-7v33.73l25.7 1.4v-28.13z" fill="#d9a741"/><path d="M5026.08 601.57l-27.84 9.15v13.9l27.84-4.94v-18.1z" fill="#876929"/><path d="M5038.62 622l-12.76-2.27-27.62 4.9 12.36 1.35 28.02-4z" fill="#624a1e"/><path d="M5061.68 649.73l13.9-1.4v28.1l-13.9 7v-33.7z" fill="#d9a741"/><path d="M5035.97 676.44l25.7 7v-33.7l-25.7-1.4v28.1z" fill="#876929"/><path d="M5026.1 680.53l27.83-9.14v-13.9l-27.84 4.92v18.1z" fill="#d9a741"/><path d="M5013.55 660.12l12.76 2.25 27.63-4.88-12.36-1.36-28.02 3.98z" fill="#fad791"/><path d="M4990.5 649.73l-13.9-1.4v28.1l13.9 7.02v-33.72z" fill="#876929"/><path d="M5016.2 676.46l-25.7 7v-33.73l25.7-1.4v28.13z" fill="#d9a741"/><path d="M5026.08 680.53l-27.84-9.14v-13.9l27.84 4.92v18.1z" fill="#876929"/><path d="M5038.62 660.12l-12.76 2.25-27.62-4.88 12.36-1.36 28.02 3.98z" fill="#fad791"/><path d="M5011.28 693.4l14.8 7.43 8.2-4.08 6.6-108.48-14.8-7.44-14.8 7.44V693.4z" fill="#876929"/><path d="M5040.9 693.4l-14.8 7.43v-120l14.8 7.44V693.4z" fill="#d9a741"/><use xlink:href="#s" transform="matrix(1,0,0,1,4976.590785001958,700.8255813953488) translate(16.525 14.4)"/><use xlink:href="#F" transform="matrix(1,0,0,1,4976.590785001958,700.8255813953488) translate(35 36)"/><use xlink:href="#G" transform="matrix(1,0,0,1,4976.590785001958,700.8255813953488) translate(14.024999999999999 57.6)"/><path d="M5608.92 1552.1h-38c-2.05 0-3.68 1.63-3.68 3.64h45.3c0-2-1.62-3.63-3.62-3.64zM5570.93 1559.37h38.02c2 0 3.62-1.62 3.62-3.6h-45.3c.03 2 1.67 3.6 3.66 3.6z" fill-opacity="0"/><path d="M5612.54 1555.76c0 2-1.56 3.62-3.6 3.62h-38.04c-2.04.02-3.6-1.6-3.72-3.62h-65.03v3.62c0 5.03 4.08 9.1 9.12 9.1h101.75c5.04.02 9.12-4.05 9.12-9.1v-3.62zM5618.1 1512.46l-5.85 6.44c0 2.3-1.92 4.14-4.2 4.14h-91.93c-2.28-.02-4.2-1.86-4.2-4.14l-4.9-6.44h-4.8v6.44c0 7.62 6.24 13.78 13.9 13.76h91.94c7.66.02 13.88-6.14 13.88-13.76v-6.44z" fill="#7d7c7c"/><path d="M5613.03 1537.66c4.92-.03 9.12 4 9.12 9.02v7.35c0 5.06-4.08 9.1-9.12 9.1h-101.76c-5.04 0-9.12-4.04-9.12-9.06v-7.33c0-5 4.08-9.08 9.12-9.05zm-4.08 16.38c2.04 0 3.6-1.63 3.6-3.64 0-2-1.56-3.65-3.6-3.65h-38.04c-2.03 0-3.6 1.64-3.6 3.65 0 2 1.57 3.64 3.6 3.64h38.05M5608.06 1448.5c7.66 0 13.88 6.15 13.88 13.7v51.4c0 7.57-6.22 13.72-13.88 13.72h-91.94c-7.66 0-13.9-6.15-13.9-13.72v-51.4c0-7.55 6.24-13.7 13.9-13.7zm4.2 65.1v-51.4c0-2.27-1.93-4.08-4.2-4.08h-91.94c-2.28 0-4.2 1.8-4.2 4.1v51.38c0 2.2 1.92 4.1 4.2 4.1h91.94c2.27 0 4.2-1.8 4.2-4.1" fill="#d2d3d3"/><use xlink:href="#H" transform="matrix(1,0,0,1,5502.147324225092,1568.5) translate(16.275000000000006 14.4)"/><use xlink:href="#D" transform="matrix(1,0,0,1,5502.147324225092,1568.5) translate(57.875 14.4)"/><path d="M5608.92 1750.75h-38c-2.05 0-3.68 1.63-3.68 3.65h45.3c0-2-1.62-3.64-3.62-3.65zM5570.93 1758.02h38.02c2 0 3.62-1.6 3.62-3.6h-45.3c.03 2 1.67 3.6 3.66 3.6z" fill-opacity="0"/><path d="M5612.54 1754.4c0 2.02-1.56 3.64-3.6 3.64h-38.04c-2.04 0-3.6-1.6-3.72-3.63h-65.03v3.64c0 5.03 4.08 9.1 9.12 9.1h101.75c5.04 0 9.12-4.06 9.12-9.1v-3.63zM5618.1 1711.1l-5.85 6.46c0 2.3-1.92 4.14-4.2 4.14h-91.93c-2.28-.02-4.2-1.86-4.2-4.14l-4.9-6.45h-4.8v6.46c0 7.6 6.24 13.77 13.9 13.75h91.94c7.66.03 13.88-6.13 13.88-13.74v-6.45z" fill="#7d7c7c"/><path d="M5613.03 1736.3c4.92 0 9.12 4 9.12 9.03v7.37c0 5.04-4.08 9.1-9.12 9.1h-101.76c-5.04 0-9.12-4.06-9.12-9.08v-7.34c0-5 4.08-9.07 9.12-9.04zm-4.08 16.4c2.04 0 3.6-1.64 3.6-3.65 0-2-1.56-3.64-3.6-3.64h-38.04c-2.03 0-3.6 1.64-3.6 3.65 0 2 1.57 3.65 3.6 3.65h38.05M5608.06 1647.15c7.66 0 13.88 6.15 13.88 13.72v51.4c0 7.55-6.22 13.7-13.88 13.7h-91.94c-7.66 0-13.9-6.15-13.9-13.7v-51.4c0-7.57 6.24-13.72 13.9-13.72zm4.2 65.1v-51.38c0-2.3-1.93-4.1-4.2-4.1h-91.94c-2.28 0-4.2 1.8-4.2 4.1v51.4c0 2.2 1.92 4.08 4.2 4.08h91.94c2.27 0 4.2-1.8 4.2-4.1" fill="#d2d3d3"/><use xlink:href="#H" transform="matrix(1,0,0,1,5502.147324225092,1767.1539591836736) translate(16.275000000000006 14.4)"/><use xlink:href="#D" transform="matrix(1,0,0,1,5502.147324225092,1767.1539591836736) translate(57.875 14.4)"/><path d="M5608.92 1944.04h-38c-2.05 0-3.68 1.63-3.68 3.65h45.3c0-2-1.62-3.65-3.62-3.66zM5570.93 1951.3h38.02c2 0 3.62-1.6 3.62-3.6h-45.3c.03 2 1.67 3.6 3.66 3.6z" fill-opacity="0"/><path d="M5612.54 1947.7c0 2-1.56 3.63-3.6 3.63h-38.04c-2.04 0-3.6-1.6-3.72-3.63h-65.03v3.63c0 5.03 4.08 9.1 9.12 9.1h101.75c5.04 0 9.12-4.06 9.12-9.1v-3.63zM5618.1 1904.4l-5.85 6.45c0 2.3-1.92 4.14-4.2 4.14h-91.93c-2.28-.03-4.2-1.87-4.2-4.15l-4.9-6.45h-4.8v6.45c0 7.6 6.24 13.77 13.9 13.75h91.94c7.66.02 13.88-6.14 13.88-13.75v-6.45z" fill="#7d7c7c"/><path d="M5613.03 1929.6c4.92-.02 9.12 4 9.12 9.02v7.35c0 5.06-4.08 9.1-9.12 9.1h-101.76c-5.04 0-9.12-4.04-9.12-9.06V1938.7c0-5 4.08-9.08 9.12-9.05zm-4.08 16.38c2.04 0 3.6-1.63 3.6-3.64 0-2-1.56-3.64-3.6-3.64h-38.04c-2.03 0-3.6 1.63-3.6 3.64 0 2 1.57 3.64 3.6 3.64h38.05M5608.06 1840.44c7.66 0 13.88 6.15 13.88 13.72v51.4c0 7.55-6.22 13.7-13.88 13.7h-91.94c-7.66 0-13.9-6.15-13.9-13.7v-51.4c0-7.57 6.24-13.72 13.9-13.72zm4.2 65.1v-51.38c0-2.3-1.93-4.1-4.2-4.1h-91.94c-2.28 0-4.2 1.8-4.2 4.1v51.4c0 2.2 1.92 4.08 4.2 4.08h91.94c2.27 0 4.2-1.8 4.2-4.1" fill="#d2d3d3"/><use xlink:href="#H" transform="matrix(1,0,0,1,5502.147324225092,1960.4438775510203) translate(16.275000000000006 14.4)"/><use xlink:href="#D" transform="matrix(1,0,0,1,5502.147324225092,1960.4438775510203) translate(57.875 14.4)"/><path d="M5291.6 1710.86c0 31.8-25.77 57.63-57.5 57.63-31.75 0-57.5-25.83-57.5-57.64 0-31.8 25.75-57.63 57.5-57.63 31.73 0 57.5 25.82 57.5 57.63z" fill="#9d5025"/><path d="M5176.6 1706.12h115v4.73h-115v-4.73z" fill="#9d5025"/><path d="M5291.6 1706.13c0 31.8-25.77 57.63-57.5 57.63-31.75 0-57.5-25.82-57.5-57.63 0-31.8 25.75-57.63 57.5-57.63 31.73 0 57.5 25.82 57.5 57.63z" fill="#f58536"/><path d="M5190.74 1711.86v-1.5c.43-7 4.33-12.8 10.65-15.86.6-12.86 11.5-22.8 24.42-22.12 8.05.38 14.8 4.5 18.88 11.47 6.58-2.77 14.12.28 16.9 6.82.42.95.68 1.72.86 2.67 8.66 1.72 14.9 10.03 14.9 17.02v1.4c0 8.53-8.84 16-18.9 16h-48.93c-9.96.07-18.8-7.42-18.8-15.9z" fill="#fff"/><path d="M5245.86 1689.98l-3.67 2.54-1.88-4.06c-2.85-6.34-8.7-10.23-15.66-10.27h-.07c-9.53 0-17.32 7.77-17.32 17.38v3.23l-2.7.8c-4.56 1.83-7.56 5.85-7.93 10.8v1.4c0 4.66 5.7 10.08 12.96 10.08h49c7.34 0 12.96-5.42 12.96-10.1v-1.4c0-4.7-5.25-10.87-11.3-11.35l-3.3-.26-.23-3.28c0-1.4-.45-2.54-1.2-3.68-2.18-3.2-6.52-3.98-9.67-1.8z" fill="#f58536"/><use xlink:href="#f" transform="matrix(1,0,0,1,5176.590785001958,1768.5) translate(27.025 14.4)"/><use xlink:href="#g" transform="matrix(1,0,0,1,5176.590785001958,1768.5) translate(24.025 36)"/><path d="M5501.23 1518.5h-99.6c-2.76 0-5 2.24-5 5v190c0 2.76-2.24 5-5 5h-82.1" stroke="#000" stroke-width="2" fill="none"/><path d="M5502.23 1518.9l.08.6h-1.1v-2h1.03z"/><path d="M5294.27 1718.5l14.27-4.64v9.28z" stroke="#000" stroke-width="2"/><path d="M5501.23 1717.15H5397.3c-.37 0-.67.3-.67.68 0 .37-.3.67-.67.67h-86.42" stroke="#000" stroke-width="2" fill="none"/><path d="M5502.23 1717.56l.08.6h-1.1v-2h1.03z"/><path d="M5294.27 1718.5l14.27-4.64v9.28z" stroke="#000" stroke-width="2"/><path d="M5501.23 1910.44h-99.6c-2.76 0-5-2.23-5-5V1723.5c0-2.76-2.24-5-5-5h-82.1" stroke="#000" stroke-width="2" fill="none"/><path d="M5502.23 1910.85l.08.6h-1.1v-2h1.03z"/><path d="M5294.27 1718.5l14.27-4.64v9.28z" stroke="#000" stroke-width="2"/><path d="M4221 1040h20.5" stroke="#000" stroke-width="2" fill="none"/><path d="M4221.02 1041H4220v-2h1.02z"/><path d="M4256.76 1040l-14.26 4.64v-9.28z" stroke="#000" stroke-width="2"/><path d="M4971 1657.55l-4.97 2.5v70.32l4.97 2.48 20.1-35.84-20.1-39.45z" fill="#9d5025"/><path d="M4982.56 1730.14l-11.57 2.7v-75.3l11.56 2.65v69.94z" fill="#f58536"/><path d="M4976.47 1654.8l6.1-3.05 28.96 46.58-28.96 40.32-6.1-3.04v-80.8z" fill="#9d5025"/><path d="M4997 1734.57l-14.43 4.08v-86.9l14.42 4.08v78.74z" fill="#f58536"/><path d="M4989.36 1648.34l7.66-3.85 42.7 58.9-42.7 42.5-7.66-3.84v-93.72z" fill="#9d5025"/><path d="M5015.5 1739.1l-18.5 6.8v-101.4l18.5 6.78v87.83z" fill="#f58536"/><path d="M5005.64 1640.13l9.88-4.92 46.23 63.37-46.23 56.64-9.88-4.9v-110.17z" fill="#9d5025"/><path d="M5065.02 1730.37l-49.5 24.84v-120l49.5 24.85v70.32z" fill="#f58536"/><use xlink:href="#s" transform="matrix(1,0,0,1,4966.034245778823,1755.2100816326533) translate(16.525 14.4)"/><use xlink:href="#t" transform="matrix(1,0,0,1,4966.034245778823,1755.2100816326533) translate(32.025 36)"/><path d="M5234.1 1769.5v34c0 2.75-2.25 5-5 5h-208.57c-2.76 0-5-2.25-5-5v-29.8" stroke="#000" stroke-width="2" fill="none"/><path d="M5234.1 1768.5h.52l.47-.04v1.05h-2v-1.06z"/><path d="M5015.53 1758.44l4.64 14.26h-9.27z" stroke="#000" stroke-width="2"/><path d="M5015.53 1634.22v-34c0-2.76 2.24-5 5-5h207.9c2.75 0 5 2.24 5 5v29.8" stroke="#000" stroke-width="2" fill="none"/><path d="M5016.53 1635.72l-1-.5h-.02l-.97.48v-1.5h2z"/><path d="M5233.42 1645.27l-4.64-14.26h9.27z" stroke="#000" stroke-width="2"/><path d="M4446.34 1638.54l-12.4-3.46-11.72-13.33 13.08 1.08 11.04 15.7z" fill="#b8852e"/><path d="M4446.35 1638.54l8.86-18.54-8.27-1.16-11.64 4 11.05 15.7z" fill="#d9a741"/><path d="M4417.68 1629.76l-6.97-1.96-7.66-8.74 8.15 1.28 6.48 9.42z" fill="#b8852e"/><path d="M4417.67 1629.76l5-10.44-4.66-.66-6.82 1.67 6.5 9.43z" fill="#d9a741"/><path d="M4400 1619.32l7.14 1.47 34.86-30.3-34.86-33.87-7.14 3.6v59.1z" fill="#876929"/><path d="M4434.64 1562.6v55.63l-27.52 2.56v-64.17l27.52 5.97z" fill="#d9a741"/><path d="M4415.9 1622.68l12.23 2.46 33.7-39-33.7-40.1-12.22 6.16v70.48z" fill="#876929"/><path d="M4497.85 1568.1v48.1l-69.72 8.94v-79.1l69.72 22.06z" fill="#d9a741"/><path d="M4485.22 1650l-17.6-4.93-16.66-18.96 18.57 1.56 15.7 22.33z" fill="#b8852e"/><path d="M4485.22 1650l12.62-26.34-11.8-1.68-16.5 5.7 15.68 22.3z" fill="#d9a741"/><path d="M4442 1627.77l17.95 3.44 24.37-50.6-24.37-50.6-17.95 9.1v88.67z" fill="#876929"/><path d="M4459.96 1631.2l60.03-11.93v-59.3l-60.04-29.97v101.2z" fill="#d9a741"/><use xlink:href="#x" transform="matrix(1,0,0,1,4400,1650) translate(6.049999999999997 14.4)"/><use xlink:href="#y" transform="matrix(1,0,0,1,4400,1650) translate(77 14.4)"/><path d="M4020 1861v34c0 2.75 2.24 5 5 5h330c2.76 0 5-2.25 5-5v-290c0-2.76 2.24-5 5-5h16.5" stroke="#000" stroke-width="2" fill="none"/><path d="M4020 1860l1-.5v1.5h-2v-1.5l1 .5v-3z"/><path d="M4396.76 1600l-14.26 4.64v-9.28z" stroke="#000" stroke-width="2"/><path d="M4607.5 1582.72l-13.63-.72v-24.04l13.64 2.62v22.14z" fill="#f58536"/><path d="M4682.84 1583l-12.77.44-10.74-.73 13.5-.72 10 1.02z" fill="#6b3a19"/><path d="M4659.33 1568l13.78-2.04v16.02l-13.77.72V1568zM4584 1607.77l49.5 12.66V1590H4584v17.77zM4618.7 1627.57l14.8 5.38V1650l-14.8-7.43v-15zM4618.7 1537.43l14.8-7.43v48.08l-14.8 1.43v-42.07zM4584 1583l9.87-1.02v-24.02l-9.87 3.93v21.1z" fill="#9d5025"/><path d="M4683 1590h-49.5v30.43l49.5-12.66V1590zM4648.3 1537.43l-14.8-7.43v48.08l14.8 1.43v-42.07zM4683 1568.88l-9.88-2.92v16l9.87 1.03v-14.12zM4648.3 1627.57l-14.8 5.38V1650l14.8-7.43v-15z" fill="#f58536"/><path d="M4648.3 1627.57l-14.8-4.08-14.8 4.07 14.8 5.38 14.8-5.38z" fill="#fbbf93"/><path d="M4618.7 1579.5l14.8-1.45 14.8 1.45-14.8 1.16-14.8-1.16zM4584 1583l9.73-1.02 13.78.73-10.6.74-12.9-.44z" fill="#6b3a19"/><use xlink:href="#v" transform="matrix(1,0,0,1,4584,1650) translate(7.875 14.4)"/><use xlink:href="#w" transform="matrix(1,0,0,1,4584,1650) translate(53.175 14.4)"/><path d="M4633.5 1765.7v-97.2" stroke="#000" stroke-width="2" fill="none"/><path d="M4634.5 1766.7h-2v-1.02h2z"/><path d="M4633.5 1653.22l4.64 14.27h-9.28z" stroke="#000" stroke-width="2"/><path d="M4521 1600h44.5" stroke="#000" stroke-width="2" fill="none"/><path d="M4521 1601h-1v-2h1z"/><path d="M4580.76 1600l-14.26 4.64v-9.28z" stroke="#000" stroke-width="2"/><path d="M4687 1319.77l-13.4-14.62-18.84 48.1 18.85 48.12 13.4-14.62v-66.98z" fill="#2e73b8"/><path d="M4650.22 1413.3l23.4-11.9v-96.23l-23.4-11.88-27.8 60 27.8 60z" fill="#5294cf"/><path d="M4616.78 1413.3h33.43v-120h-33.42l-20.07 60 20.08 60z" fill="#2e73b8"/><path d="M4593.38 1401.4l23.4 11.9v-120l-23.4 11.87-10.36 48.12 10.36 48.1z" fill="#205b99"/><path d="M4580 1386.74l13.38 14.62v-96.2l-13.38 14.6v66.98z" fill="#19486f"/><use xlink:href="#s" transform="matrix(1,0,0,1,4580,1413.2899183673467) translate(20.525 14.4)"/><use xlink:href="#B" transform="matrix(1,0,0,1,4580,1413.2899183673467) translate(34.55 36)"/><path d="M4633.5 1529v-97.2" stroke="#000" stroke-width="2" fill="none"/><path d="M4634.5 1530.5l-1-.5v3-3l-1 .5v-1.53h2z"/><path d="M4633.5 1416.53l4.64 14.26h-9.28z" stroke="#000" stroke-width="2"/><path d="M4716.6 619.7V676l49.5 24.83 49.5-24.84v-14.05l-42.08-5.28V625l42.07-5.3v-14.03l-49.5-24.84-49.5 24.84v14.04z" fill="#876929"/><path d="M4716.6 661.9l49.48 14.9v24L4716.6 676v-14.1z" fill="#876929"/><path d="M4722.9 679.14l-6.3-3.14v-70.36l6.32-3.14-.02 76.64z" fill="#876929"/><path d="M4773.5 656.68l-50.6 7.13v-45.98l50.6 7.18v31.68zM4815.6 619.74l-49.5-14.94v-23.97l49.5 24.86v14.04zM4815.56 661.92l-49.47 14.9v24l49.46-24.86v-14.04z" fill="#d9a741"/><path d="M4747.85 653.7l18.23 2.27v-30.43l-18.23 2.3v25.85zM4729.5 651.4l11.82 1.5v-24.2l-11.83 1.5v21.2z" fill="#876929"/><path d="M4722.92 617.82l43.18-13 49.48 14.9-42.07 5.25-50.58-7.15z" fill="#624a1e"/><path d="M4722.9 663.8l43.17 13.03 49.48-14.9-42.06-5.26-50.6 7.13z" fill="#fad791"/><path d="M4815.56 649.7l-49.47 6.27v-30.43l49.46 6.33v17.83z" fill="#d9a741"/><use xlink:href="#s" transform="matrix(1,0,0,1,4716.590785001958,700.8255813953488) translate(16.525 14.4)"/><use xlink:href="#I" transform="matrix(1,0,0,1,4716.590785001958,700.8255813953488) translate(30.5 36)"/><path d="M4679.6 1017.34c0 6.35-20.62 11.65-46 11.65-25.4 0-46-5.22-46-11.66v-5.26l46-6.34 46 6.34zM4633.6 1038.32l-46 65.2v5.25c0 6.4 20.6 11.66 46 11.66 25.38 0 45.98-5.17 45.98-11.66v-5.25z" fill="#19486f"/><path d="M4633.6 1000.44c25.38 0 45.98 5.22 45.98 11.66 0 6.43-20.6 11.65-46 11.65-25.38 0-46-5.22-46-11.65 0-6.44 20.62-11.66 46-11.66z" fill="#2e73b8"/><path d="M4633.6 1033.04c-25.4 0-46-5.16-46-11.63v82.15c0 6.37 20.6 11.63 46 11.63 25.38 0 45.98-5.26 45.98-11.63v-82.14c0 6.48-20.6 11.64-46 11.64z" fill="#2e73b8"/><path d="M4611.5 1048.22h27.04c9.4 0 18.6 4.2 18.6 15 .32 5.97-2.98 11.14-8.4 13.4v.15c5.6 1.38 7.26 7.73 7.73 12.7.14 2.24.38 10.08 2.22 12.06h-13.6c-1.18-1.82-1.42-7.05-1.56-8.5-.38-5.38-1.23-10.87-7.74-10.87h-10.53v19.42h-13.78zm13.82 23.16h11.6c.48.05.9.05 1.38 0 3.1-.38 5.33-3.2 4.96-6.35 0-3.95-3.12-5.77-7-5.77h-10.94z" fill="#fff"/><use xlink:href="#J" transform="matrix(1,0,0,1,4587.590785001954,1120.4438775510203) translate(12.074999999999996 14.4)"/><use xlink:href="#K" transform="matrix(1,0,0,1,4587.590785001954,1120.4438775510203) translate(54.975 14.4)"/><use xlink:href="#L" transform="matrix(1,0,0,1,4587.590785001954,1120.4438775510203) translate(12.524999999999999 36)"/><use xlink:href="#M" transform="matrix(1,0,0,1,4587.590785001954,1120.4438775510203) translate(28.025 57.6)"/><use xlink:href="#N" transform="matrix(1,0,0,1,4587.590785001954,1120.4438775510203) translate(19.575 79.20000000000002)"/><path d="M5075.58 1067.5l-24.04-.98-15.57.97 25.7 35.1 13.9-35.1z" fill="#fad791"/><path d="M5075.58 1052.98l-24.04.97-15.57-.97 25.7-35.1 13.9 35.1zM4976.6 1052.9l24.03 1.05 15.57-1-25.7-34.9-13.9 34.86z" fill="#624a1e"/><path d="M4976.6 1067.5l24.03-.98 15.57.97-25.7 35.14-13.9-35.15z" fill="#fad791"/><path d="M5061.68 1051.56l13.9 1.4v-28.1l-13.9-7v33.7z" fill="#d9a741"/><path d="M5035.97 1024.85l25.7-6.98v33.7l-25.7 1.4v-28.12z" fill="#876929"/><path d="M5026.1 1020.75l27.83 9.14v13.9l-27.84-4.94v-18.1z" fill="#d9a741"/><path d="M5013.55 1041.16l12.76-2.26 27.63 4.9-12.36 1.36-28.02-4z" fill="#624a1e"/><path d="M4990.5 1051.54l-13.9 1.37v-28.2l13.9-6.87v33.7z" fill="#876929"/><path d="M5016.2 1024.82l-25.7-7v33.73l25.7 1.4v-28.13z" fill="#d9a741"/><path d="M5026.08 1020.75l-27.84 9.14v13.9l27.84-4.94v-18.1z" fill="#876929"/><path d="M5038.62 1041.16l-12.76-2.26-27.62 4.9 12.36 1.36 28.02-4z" fill="#624a1e"/><path d="M5061.68 1068.9l13.9-1.4v28.12l-13.9 6.98v-33.7z" fill="#d9a741"/><path d="M5035.97 1095.62l25.7 6.98v-33.7l-25.7-1.4v28.12z" fill="#876929"/><path d="M5026.1 1099.7l27.83-9.14v-13.9l-27.84 4.94v18.1z" fill="#d9a741"/><path d="M5013.55 1079.3l12.76 2.24 27.63-4.88-12.36-1.35-28.02 4z" fill="#fad791"/><path d="M4990.5 1068.9l-13.9-1.4v28.1l13.9 7.02v-33.72z" fill="#876929"/><path d="M5016.2 1095.63l-25.7 7v-33.73l25.7-1.4v28.13z" fill="#d9a741"/><path d="M5026.08 1099.7l-27.84-9.14v-13.9l27.84 4.94v18.1z" fill="#876929"/><path d="M5038.62 1079.3l-12.76 2.24-27.62-4.88 12.36-1.35 28.02 4z" fill="#fad791"/><path d="M5011.28 1112.56l14.8 7.44 8.2-4.08 6.6-108.48-14.8-7.44-14.8 7.44v105.12z" fill="#876929"/><path d="M5040.9 1112.56l-14.8 7.44v-120l14.8 7.44v105.12z" fill="#d9a741"/><use xlink:href="#s" transform="matrix(1,0,0,1,4976.590785001958,1120) translate(16.525 14.4)"/><use xlink:href="#F" transform="matrix(1,0,0,1,4976.590785001958,1120) translate(35 36)"/><use xlink:href="#G" transform="matrix(1,0,0,1,4976.590785001958,1120) translate(14.024999999999999 57.6)"/><path d="M5176.15 878.5h-44.8c-2.75 0-5 2.24-5 5V1065c0 2.76-2.23 5-5 5h-27.27" stroke="#000" stroke-width="2" fill="none"/><path d="M5177.3 879.5h-1.18v-2h.9z"/><path d="M5078.82 1070l14.26-4.64v9.28z" stroke="#000" stroke-width="2"/><path d="M4975.6 650.83h-150.4" stroke="#000" stroke-width="2" fill="none"/><path d="M4976.6 651.83h-1.03v-2h1.02zm3 0h-1.62l-.8-2h2.4zM4824.2 655.46l-14.28-4.63 2.07-.68 3.56-.45v-.7l8.63-2.8z"/><path d="M4825.2 656.84l-18.52-6 8.88-1.14v-1.76l9.63-3.13zm-12.04-6l10.03 3.24v-6.5z"/><path d="M5075.6 748.52c0-2.76 2.23-5 5-5h98c2.75 0 5 2.24 5 5v38c0 2.76-2.25 5-5 5h-98c-2.77 0-5-2.24-5-5z" stroke="#fff" stroke-width="2"/><g><use xlink:href="#O" transform="matrix(1,0,0,1,5075.590785001958,743.5232558139534) translate(23.78895061728395 29.77777777777778)"/></g><path d="M5075.6 957.44c0-2.76 2.23-5 5-5h98c2.75 0 5 2.24 5 5v38c0 2.77-2.25 5-5 5h-98c-2.77 0-5-2.23-5-5z" stroke="#fff" stroke-width="2"/><g><use xlink:href="#P" transform="matrix(1,0,0,1,5075.590785001958,952.44387755102) translate(31.196358024691364 29.77777777777778)"/></g><path d="M5065.03 1792.15c0-2.76 2.24-5 5-5h98c2.77 0 5 2.24 5 5v38c0 2.77-2.23 5-5 5h-98c-2.76 0-5-2.23-5-5z" stroke="#fff" stroke-width="2"/><g><use xlink:href="#Q" transform="matrix(1,0,0,1,5065.034245778823,1787.1539591836736) translate(29.961790123456794 29.77777777777778)"/></g><path d="M5065.03 1573.5c0-2.76 2.24-5 5-5h98c2.77 0 5 2.24 5 5v38c0 2.76-2.23 5-5 5h-98c-2.76 0-5-2.24-5-5z" stroke="#fff" stroke-width="2"/><g><use xlink:href="#R" transform="matrix(1,0,0,1,5065.034245778823,1568.5) translate(31.196358024691364 29.77777777777778)"/></g><path d="M4732.6 1095.9l6.28 3.13 11.14-38.24-11.14-38.4-6.3 3.13v70.36z" fill="#9d5025"/><path d="M4751.07 1025.27l-12.18-2.83v76.6l12.17-2.84v-70.93z" fill="#f58536"/><path d="M4746.46 1018.6l9.25-4.67 11.55 46.87-11.54 46.68-9.24-4.68v-84.2z" fill="#9d5025"/><path d="M4774.66 1101.23l-18.94 6.07v-93.37l18.94 6.07v81.23z" fill="#f58536"/><path d="M4817.68 1030.34h7.57v58.24l-7.57-.4v-57.84z" fill="#9d5025"/><path d="M4788.28 1031.2l8.52-4.4 27.86 3.54.82 7.46-7.62 1.08-29.58-7.7z" fill="#6b3a19"/><path d="M4788.53 1090.23l8.48 4.4 28.72-11.02-7.62-1.06-29.57 7.7z" fill="#fbbf93"/><path d="M4790.67 1077.87l15.17 2.03v-38.38l-15.17 2.03v34.32z" fill="#9d5025"/><path d="M4767.25 1113.28l14.8 7.44 12.72-60.12-12.7-59.88-14.82 7.44v105.12z" fill="#9d5025"/><path d="M4782.08 1000.72v120l49.5-24.84v-70.32zm43.16 83.04l-28.36 8.52v-63.12l28.36 8.52z" fill="#f58536"/><path d="M4805.84 1041.52v38.5l15.78-19.25-15.78-19.25z" fill="#f58536"/><g><use xlink:href="#z" transform="matrix(1,0,0,1,4732.590785001956,1120.715227911402) translate(29.35 14.4)"/><use xlink:href="#A" transform="matrix(1,0,0,1,4732.590785001956,1120.715227911402) translate(17.025 36)"/></g><path d="M4782.1 1121.7v34c0 2.77-2.25 5-5 5h-138.5c-2.77 0-5-2.23-5-5v-16.77" stroke="#000" stroke-width="2" fill="none"/><path d="M4783.1 1121.74h-2v-1.5l.96.48.02-.12v.12l1-.5z"/><path d="M4633.6 1123.67l4.63 14.26h-9.27z" stroke="#000" stroke-width="2"/><path d="M4633.6 999.44v-34c0-2.76 2.23-5 5-5h138.5c2.75 0 5 2.24 5 5v16.78" stroke="#000" stroke-width="2" fill="none"/><path d="M4634.6 1000.5l-1-.06-1 .03v-1.05h2z"/><path d="M4782.1 997.48l-4.64-14.26h9.27z" stroke="#000" stroke-width="2"/><path d="M4975.6 1024.7h-71.7c-.12 0-.22.1-.22.23 0 .12-.1.22-.22.22h-54.18" stroke="#000" stroke-width="2" fill="none"/><path d="M4976.6 1024.7v1h-1.03v-2h3.04zM4848.28 1029.8l-14.27-4.65 14.28-4.63z"/><path d="M4849.28 1031.16l-18.5-6 18.5-6.02zm-12.03-6l10.03 3.25v-6.5z"/><path d="M4832.58 1095.88h71.28c.13 0 .23-.1.23-.23 0-.12.1-.22.2-.22h53.8" stroke="#000" stroke-width="2" fill="none"/><path d="M4832.6 1096.88h-3l1.98-1v-1h1.03z"/><path d="M4973.35 1095.43l-14.26 4.64v-9.27z" stroke="#000" stroke-width="2"/><path d="M4715.6 650.83H4395c-2.76 0-5 2.23-5 5v90.33c0 2.76-2.24 5-5 5h-303.1" stroke="#000" stroke-width="2" fill="none"/><path d="M4716.6 651.83h-1.03v-2h1.02z"/><path d="M4066.65 751.16l14.26-4.63v9.27z" stroke="#000" stroke-width="2"/><path d="M4656.3 511.5" stroke="#000" stroke-width="2" fill="none"/><path/><path d="M4653.06 511.5l-14.26 4.64v-9.28z" stroke="#000" stroke-width="2"/><path d="M4579 1363.3h-34c-2.76 0-5-2.25-5-5v-282.86c0-2.76 2.24-5 5-5h24.1" stroke="#000" stroke-width="2" fill="none"/><path d="M4580 1364.3h-1.03v-2h1.03z"/><path d="M4584.35 1070.44l-14.26 4.64v-9.27z" stroke="#000" stroke-width="2"/><path d="M4965.03 1705.2h-34c-2.76 0-5-2.23-5-5V1165c0-2.76 2.24-5 5-5h90.06c2.75 0 5-2.24 5-5v-16.5" stroke="#000" stroke-width="2" fill="none"/><path d="M4966.03 1706.2H4965v-2h1.03z"/><path d="M5026.1 1123.24l4.63 14.26h-9.27z" stroke="#000" stroke-width="2"/><defs><path d="M127-220V0H93v-220H8v-28h204v28h-85" id="S"/><path d="M206 0h-36l-40-164L89 0H53L-1-190h32L70-26l43-164h34l41 164 42-164h31" id="T"/><path d="M24-231v-30h32v30H24zM24 0v-190h32V0H24" id="U"/><path d="M59-47c-2 24 18 29 38 22v24C64 9 27 4 27-40v-127H5v-23h24l9-43h21v43h35v23H59v120" id="V"/><path d="M100-194c63 0 86 42 84 106H49c0 40 14 67 53 68 26 1 43-12 49-29l28 8c-11 28-37 45-77 45C44 4 14-33 15-96c1-61 26-98 85-98zm52 81c6-60-76-77-97-28-3 7-6 17-6 28h103" id="W"/><path d="M114-163C36-179 61-72 57 0H25l-1-190h30c1 12-1 29 2 39 6-27 23-49 58-41v29" id="X"/><g id="a"><use transform="matrix(0.05,0,0,0.05,0,0)" xlink:href="#S"/><use transform="matrix(0.05,0,0,0.05,9.950000000000001,0)" xlink:href="#T"/><use transform="matrix(0.05,0,0,0.05,22.900000000000002,0)" xlink:href="#U"/><use transform="matrix(0.05,0,0,0.05,26.85,0)" xlink:href="#V"/><use transform="matrix(0.05,0,0,0.05,31.85,0)" xlink:href="#V"/><use transform="matrix(0.05,0,0,0.05,36.85,0)" xlink:href="#W"/><use transform="matrix(0.05,0,0,0.05,46.85,0)" xlink:href="#X"/></g><path d="M185-189c-5-48-123-54-124 2 14 75 158 14 163 119 3 78-121 87-175 55-17-10-28-26-33-46l33-7c5 56 141 63 141-1 0-78-155-14-162-118-5-82 145-84 179-34 5 7 8 16 11 25" id="Y"/><path d="M108 0H70L1-190h34L89-25l56-165h34" id="Z"/><g id="b"><use transform="matrix(0.05,0,0,0.05,0,0)" xlink:href="#Y"/><use transform="matrix(0.05,0,0,0.05,12,0)" xlink:href="#W"/><use transform="matrix(0.05,0,0,0.05,22,0)" xlink:href="#X"/><use transform="matrix(0.05,0,0,0.05,27.950000000000003,0)" xlink:href="#Z"/><use transform="matrix(0.05,0,0,0.05,36.95,0)" xlink:href="#W"/><use transform="matrix(0.05,0,0,0.05,46.95,0)" xlink:href="#X"/></g><path d="M137 0h-34L2-248h35l83 218 83-218h36" id="aa"/><path d="M30-248c87 1 191-15 191 75 0 78-77 80-158 76V0H30v-248zm33 125c57 0 124 11 124-50 0-59-68-47-124-48v98" id="ab"/><path d="M212-179c-10-28-35-45-73-45-59 0-87 40-87 99 0 60 29 101 89 101 43 0 62-24 78-52l27 14C228-24 195 4 139 4 59 4 22-46 18-125c-6-104 99-153 187-111 19 9 31 26 39 46" id="ac"/><g id="c"><use transform="matrix(0.05,0,0,0.05,0,0)" xlink:href="#aa"/><use transform="matrix(0.05,0,0,0.05,12,0)" xlink:href="#ab"/><use transform="matrix(0.05,0,0,0.05,24,0)" xlink:href="#ac"/></g><path d="M16-82v-28h88v28H16" id="ad"/><use transform="matrix(0.05,0,0,0.05,0,0)" xlink:href="#ad" id="d"/><path d="M27 0v-27h64v-190l-56 39v-29l58-41h29v221h61V0H27" id="ae"/><path d="M101-251c68 0 85 55 85 127S166 4 100 4C33 4 14-52 14-124c0-73 17-127 87-127zm-1 229c47 0 54-49 54-102s-4-102-53-102c-51 0-55 48-55 102 0 53 5 102 54 102" id="af"/><path d="M33 0v-38h34V0H33" id="ag"/><path d="M0 4l72-265h28L28 4H0" id="ah"/><path d="M110-160c48 1 74 30 74 79 0 53-28 85-80 85-65 0-83-55-86-122-5-90 50-162 133-122 14 7 22 21 27 39l-31 6c-5-40-67-38-82-6-9 19-15 44-15 74 11-20 30-34 60-33zm-7 138c34 0 49-23 49-58s-16-56-50-56c-29 0-50 16-49 49 1 36 15 65 50 65" id="ai"/><g id="e"><use transform="matrix(0.05,0,0,0.05,0,0)" xlink:href="#ae"/><use transform="matrix(0.05,0,0,0.05,10,0)" xlink:href="#af"/><use transform="matrix(0.05,0,0,0.05,20,0)" xlink:href="#ag"/><use transform="matrix(0.05,0,0,0.05,25,0)" xlink:href="#af"/><use transform="matrix(0.05,0,0,0.05,35,0)" xlink:href="#ag"/><use transform="matrix(0.05,0,0,0.05,40,0)" xlink:href="#af"/><use transform="matrix(0.05,0,0,0.05,50,0)" xlink:href="#ag"/><use transform="matrix(0.05,0,0,0.05,55,0)" xlink:href="#af"/><use transform="matrix(0.05,0,0,0.05,65,0)" xlink:href="#ah"/><use transform="matrix(0.05,0,0,0.05,70,0)" xlink:href="#ae"/><use transform="matrix(0.05,0,0,0.05,80,0)" xlink:href="#ai"/></g><path d="M33 0v-248h34V0H33" id="aj"/><path d="M117-194c89-4 53 116 60 194h-32v-121c0-31-8-49-39-48C34-167 62-67 57 0H25l-1-190h30c1 10-1 24 2 32 11-22 29-35 61-36" id="ak"/><g id="f"><use transform="matrix(0.05,0,0,0.05,0,0)" xlink:href="#aj"/><use transform="matrix(0.05,0,0,0.05,5,0)" xlink:href="#ak"/><use transform="matrix(0.05,0,0,0.05,15,0)" xlink:href="#V"/><use transform="matrix(0.05,0,0,0.05,20,0)" xlink:href="#W"/><use transform="matrix(0.05,0,0,0.05,30,0)" xlink:href="#X"/><use transform="matrix(0.05,0,0,0.05,35.95,0)" xlink:href="#ak"/><use transform="matrix(0.05,0,0,0.05,45.95,0)" xlink:href="#W"/><use transform="matrix(0.05,0,0,0.05,55.95,0)" xlink:href="#V"/></g><path d="M177-190C167-65 218 103 67 71c-23-6-38-20-44-43l32-5c15 47 100 32 89-28v-30C133-14 115 1 83 1 29 1 15-40 15-95c0-56 16-97 71-98 29-1 48 16 59 35 1-10 0-23 2-32h30zM94-22c36 0 50-32 50-73 0-42-14-75-50-75-39 0-46 34-46 75s6 73 46 73" id="al"/><path d="M141-36C126-15 110 5 73 4 37 3 15-17 15-53c-1-64 63-63 125-63 3-35-9-54-41-54-24 1-41 7-42 31l-33-3c5-37 33-52 76-52 45 0 72 20 72 64v82c-1 20 7 32 28 27v20c-31 9-61-2-59-35zM48-53c0 20 12 33 32 33 41-3 63-29 60-74-43 2-92-5-92 41" id="am"/><path d="M179-190L93 31C79 59 56 82 12 73V49c39 6 53-20 64-50L1-190h34L92-34l54-156h33" id="an"/><g id="g"><use transform="matrix(0.05,0,0,0.05,0,0)" xlink:href="#al"/><use transform="matrix(0.05,0,0,0.05,10,0)" xlink:href="#am"/><use transform="matrix(0.05,0,0,0.05,20,0)" xlink:href="#V"/><use transform="matrix(0.05,0,0,0.05,25,0)" xlink:href="#W"/><use transform="matrix(0.05,0,0,0.05,35,0)" xlink:href="#T"/><use transform="matrix(0.05,0,0,0.05,47.95,0)" xlink:href="#am"/><use transform="matrix(0.05,0,0,0.05,57.95,0)" xlink:href="#an"/></g><path fill="#999" d="M169-182c-1-43-94-46-97-3 18 66 151 10 154 114 3 95-165 93-204 36-6-8-10-19-12-30l50-8c3 46 112 56 116 5-17-69-150-10-154-114-4-87 153-88 188-35 5 8 8 18 10 28" id="ao"/><path fill="#999" d="M136-208V0H84v-208H4v-40h212v40h-80" id="ap"/><path fill="#999" d="M140-251c80 0 125 45 125 126S219 4 139 4C58 4 15-44 15-125s44-126 125-126zm-1 214c52 0 73-35 73-88 0-50-21-86-72-86-52 0-73 35-73 86s22 88 72 88" id="aq"/><path fill="#999" d="M67-125c0 53 21 87 73 88 37 1 54-22 65-47l45 17C233-25 199 4 140 4 58 4 20-42 15-125 8-235 124-281 211-232c18 10 29 29 36 50l-46 12c-8-25-30-41-62-41-52 0-71 34-72 86" id="ar"/><path fill="#999" d="M195 0l-88-114-31 24V0H24v-248h52v113l112-113h60L142-143 257 0h-62" id="as"/><path fill="#999" d="M14-72v-43h91v43H14" id="at"/><path fill="#999" d="M24-248c93 1 206-16 204 79-1 75-69 88-152 82V0H24v-248zm52 121c47 0 100 7 100-41 0-47-54-39-100-39v80" id="au"/><path fill="#999" d="M240-174c0 40-23 61-54 70L253 0h-59l-57-94H76V0H24v-248c93 4 217-23 216 74zM76-134c48-2 112 12 112-38 0-48-66-32-112-35v73" id="av"/><path fill="#999" d="M24 0v-248h52V0H24" id="aw"/><path fill="#999" d="M24 0v-248h195v40H76v63h132v40H76v65h150V0H24" id="ax"/><path fill="#999" d="M199 0l-22-63H83L61 0H9l90-248h61L250 0h-51zm-33-102l-36-108c-10 38-24 72-36 108h72" id="ay"/><path fill="#999" d="M186 0v-106H76V0H24v-248h52v99h110v-99h50V0h-50" id="az"/><path fill="#999" d="M238-95c0 69-44 99-111 99C63 4 22-25 22-93v-155h51v151c-1 38 19 59 55 60 90 1 49-130 58-211h52v153" id="aA"/><g id="h"><use transform="matrix(0.09876543209876544,0,0,0.09876543209876544,0,0)" xlink:href="#ao"/><use transform="matrix(0.09876543209876544,0,0,0.09876543209876544,23.703703703703706,0)" xlink:href="#ap"/><use transform="matrix(0.09876543209876544,0,0,0.09876543209876544,44.641975308641975,0)" xlink:href="#aq"/><use transform="matrix(0.09876543209876544,0,0,0.09876543209876544,72.2962962962963,0)" xlink:href="#ar"/><use transform="matrix(0.09876543209876544,0,0,0.09876543209876544,97.87654320987656,0)" xlink:href="#as"/><use transform="matrix(0.09876543209876544,0,0,0.09876543209876544,123.45679012345683,0)" xlink:href="#at"/><use transform="matrix(0.09876543209876544,0,0,0.09876543209876544,135.2098765432099,0)" xlink:href="#au"/><use transform="matrix(0.09876543209876544,0,0,0.09876543209876544,158.9135802469136,0)" xlink:href="#av"/><use transform="matrix(0.09876543209876544,0,0,0.09876543209876544,184.49382716049385,0)" xlink:href="#aw"/><use transform="matrix(0.09876543209876544,0,0,0.09876543209876544,194.37037037037038,0)" xlink:href="#ar"/><use transform="matrix(0.09876543209876544,0,0,0.09876543209876544,219.95061728395063,0)" xlink:href="#ax"/><use transform="matrix(0.09876543209876544,0,0,0.09876543209876544,243.65432098765433,0)" xlink:href="#at"/><use transform="matrix(0.09876543209876544,0,0,0.09876543209876544,255.40740740740742,0)" xlink:href="#ay"/><use transform="matrix(0.09876543209876544,0,0,0.09876543209876544,280.98765432098764,0)" xlink:href="#av"/><use transform="matrix(0.09876543209876544,0,0,0.09876543209876544,306.5679012345679,0)" xlink:href="#ar"/><use transform="matrix(0.09876543209876544,0,0,0.09876543209876544,332.14814814814815,0)" xlink:href="#az"/><use transform="matrix(0.09876543209876544,0,0,0.09876543209876544,357.7283950617284,0)" xlink:href="#aw"/><use transform="matrix(0.09876543209876544,0,0,0.09876543209876544,367.60493827160496,0)" xlink:href="#ap"/><use transform="matrix(0.09876543209876544,0,0,0.09876543209876544,389.2345679012346,0)" xlink:href="#ax"/><use transform="matrix(0.09876543209876544,0,0,0.09876543209876544,412.9382716049383,0)" xlink:href="#ar"/><use transform="matrix(0.09876543209876544,0,0,0.09876543209876544,438.51851851851853,0)" xlink:href="#ap"/><use transform="matrix(0.09876543209876544,0,0,0.09876543209876544,460.1481481481482,0)" xlink:href="#aA"/><use transform="matrix(0.09876543209876544,0,0,0.09876543209876544,485.72839506172846,0)" xlink:href="#av"/><use transform="matrix(0.09876543209876544,0,0,0.09876543209876544,511.30864197530866,0)" xlink:href="#ax"/></g><path d="M30 0v-248h187v28H63v79h144v27H63v87h162V0H30" id="aB"/><path d="M101-251c82-7 93 87 43 132L82-64C71-53 59-42 53-27h129V0H18c2-99 128-94 128-182 0-28-16-43-45-43s-46 15-49 41l-32-3c6-41 34-60 81-64" id="aC"/><g id="j"><use transform="matrix(0.05,0,0,0.05,0,0)" xlink:href="#aB"/><use transform="matrix(0.05,0,0,0.05,12,0)" xlink:href="#ac"/><use transform="matrix(0.05,0,0,0.05,24.950000000000003,0)" xlink:href="#aC"/></g><g id="k"><use transform="matrix(0.05,0,0,0.05,0,0)" xlink:href="#S"/><use transform="matrix(0.05,0,0,0.05,9.950000000000001,0)" xlink:href="#T"/><use transform="matrix(0.05,0,0,0.05,22.900000000000002,0)" xlink:href="#U"/><use transform="matrix(0.05,0,0,0.05,26.85,0)" xlink:href="#V"/><use transform="matrix(0.05,0,0,0.05,31.85,0)" xlink:href="#V"/><use transform="matrix(0.05,0,0,0.05,36.85,0)" xlink:href="#W"/><use transform="matrix(0.05,0,0,0.05,46.85,0)" xlink:href="#X"/></g><path d="M96-169c-40 0-48 33-48 73s9 75 48 75c24 0 41-14 43-38l32 2c-6 37-31 61-74 61-59 0-76-41-82-99-10-93 101-131 147-64 4 7 5 14 7 22l-32 3c-4-21-16-35-41-35" id="aD"/><path d="M115-194c55 1 70 41 70 98S169 2 115 4C84 4 66-9 55-30l1 105H24l-1-265h31l2 30c10-21 28-34 59-34zm-8 174c40 0 45-34 45-75s-6-73-45-74c-42 0-51 32-51 76 0 43 10 73 51 73" id="aE"/><g id="l"><use transform="matrix(0.05,0,0,0.05,0,0)" xlink:href="#Y"/><use transform="matrix(0.05,0,0,0.05,12,0)" xlink:href="#aD"/><use transform="matrix(0.05,0,0,0.05,21,0)" xlink:href="#X"/><use transform="matrix(0.05,0,0,0.05,26.950000000000003,0)" xlink:href="#am"/><use transform="matrix(0.05,0,0,0.05,36.95,0)" xlink:href="#aE"/><use transform="matrix(0.05,0,0,0.05,46.95,0)" xlink:href="#W"/><use transform="matrix(0.05,0,0,0.05,56.95,0)" xlink:href="#X"/></g><path d="M205 0l-28-72H64L36 0H1l101-248h38L239 0h-34zm-38-99l-47-123c-12 45-31 82-46 123h93" id="aF"/><path d="M84 4C-5 8 30-112 23-190h32v120c0 31 7 50 39 49 72-2 45-101 50-169h31l1 190h-30c-1-10 1-25-2-33-11 22-28 36-60 37" id="aG"/><path d="M100-194c62-1 85 37 85 99 1 63-27 99-86 99S16-35 15-95c0-66 28-99 85-99zM99-20c44 1 53-31 53-75 0-43-8-75-51-75s-53 32-53 75 10 74 51 75" id="aH"/><g id="m"><use transform="matrix(0.05,0,0,0.05,0,0)" xlink:href="#aF"/><use transform="matrix(0.05,0,0,0.05,12,0)" xlink:href="#aG"/><use transform="matrix(0.05,0,0,0.05,22,0)" xlink:href="#V"/><use transform="matrix(0.05,0,0,0.05,27,0)" xlink:href="#aH"/></g><path d="M24 0v-261h32V0H24" id="aI"/><g id="n"><use transform="matrix(0.05,0,0,0.05,0,0)" xlink:href="#Y"/><use transform="matrix(0.05,0,0,0.05,12,0)" xlink:href="#aD"/><use transform="matrix(0.05,0,0,0.05,21,0)" xlink:href="#am"/><use transform="matrix(0.05,0,0,0.05,31,0)" xlink:href="#aI"/><use transform="matrix(0.05,0,0,0.05,34.95,0)" xlink:href="#U"/><use transform="matrix(0.05,0,0,0.05,38.900000000000006,0)" xlink:href="#ak"/><use transform="matrix(0.05,0,0,0.05,48.900000000000006,0)" xlink:href="#al"/></g><g id="o"><use transform="matrix(0.05,0,0,0.05,0,0)" xlink:href="#al"/><use transform="matrix(0.05,0,0,0.05,10,0)" xlink:href="#X"/><use transform="matrix(0.05,0,0,0.05,15.949999999999998,0)" xlink:href="#aH"/><use transform="matrix(0.05,0,0,0.05,25.950000000000003,0)" xlink:href="#aG"/><use transform="matrix(0.05,0,0,0.05,35.95,0)" xlink:href="#aE"/></g><path d="M30-248c118-7 216 8 213 122C240-48 200 0 122 0H30v-248zM63-27c89 8 146-16 146-99s-60-101-146-95v194" id="aJ"/><path d="M160-131c35 5 61 23 61 61C221 17 115-2 30 0v-248c76 3 177-17 177 60 0 33-19 50-47 57zm-97-11c50-1 110 9 110-42 0-47-63-36-110-37v79zm0 115c55-2 124 14 124-45 0-56-70-42-124-44v89" id="aK"/><g id="p"><use transform="matrix(0.05,0,0,0.05,0,0)" xlink:href="#aJ"/><use transform="matrix(0.05,0,0,0.05,12.950000000000001,0)" xlink:href="#aK"/></g><g id="q"><use transform="matrix(0.05,0,0,0.05,0,0)" xlink:href="#aH"/><use transform="matrix(0.05,0,0,0.05,10,0)" xlink:href="#ak"/></g><path d="M135-143c-3-34-86-38-87 0 15 53 115 12 119 90S17 21 10-45l28-5c4 36 97 45 98 0-10-56-113-15-118-90-4-57 82-63 122-42 12 7 21 19 24 35" id="aL"/><g id="r"><use transform="matrix(0.05,0,0,0.05,0,0)" xlink:href="#U"/><use transform="matrix(0.05,0,0,0.05,3.95,0)" xlink:href="#ak"/><use transform="matrix(0.05,0,0,0.05,13.949999999999998,0)" xlink:href="#aL"/><use transform="matrix(0.05,0,0,0.05,22.95,0)" xlink:href="#V"/><use transform="matrix(0.05,0,0,0.05,27.950000000000003,0)" xlink:href="#am"/><use transform="matrix(0.05,0,0,0.05,37.95,0)" xlink:href="#ak"/><use transform="matrix(0.05,0,0,0.05,47.95,0)" xlink:href="#aD"/><use transform="matrix(0.05,0,0,0.05,56.95,0)" xlink:href="#W"/></g><path d="M210-169c-67 3-38 105-44 169h-31v-121c0-29-5-50-35-48C34-165 62-65 56 0H25l-1-190h30c1 10-1 24 2 32 10-44 99-50 107 0 11-21 27-35 58-36 85-2 47 119 55 194h-31v-121c0-29-5-49-35-48" id="aM"/><path d="M9 0v-24l116-142H16v-24h144v24L44-24h123V0H9" id="aN"/><g id="s"><use transform="matrix(0.05,0,0,0.05,0,0)" xlink:href="#aF"/><use transform="matrix(0.05,0,0,0.05,12,0)" xlink:href="#aM"/><use transform="matrix(0.05,0,0,0.05,26.950000000000003,0)" xlink:href="#am"/><use transform="matrix(0.05,0,0,0.05,36.95,0)" xlink:href="#aN"/><use transform="matrix(0.05,0,0,0.05,45.95,0)" xlink:href="#aH"/><use transform="matrix(0.05,0,0,0.05,55.95,0)" xlink:href="#ak"/></g><g id="t"><use transform="matrix(0.05,0,0,0.05,0,0)" xlink:href="#aB"/><use transform="matrix(0.05,0,0,0.05,12,0)" xlink:href="#ac"/><use transform="matrix(0.05,0,0,0.05,24.950000000000003,0)" xlink:href="#aC"/></g><g id="u"><use transform="matrix(0.05,0,0,0.05,0,0)" xlink:href="#X"/><use transform="matrix(0.05,0,0,0.05,5.95,0)" xlink:href="#aH"/><use transform="matrix(0.05,0,0,0.05,15.949999999999998,0)" xlink:href="#aG"/><use transform="matrix(0.05,0,0,0.05,25.950000000000003,0)" xlink:href="#V"/><use transform="matrix(0.05,0,0,0.05,30.950000000000003,0)" xlink:href="#W"/><use transform="matrix(0.05,0,0,0.05,40.95,0)" xlink:href="#X"/></g><path d="M266 0h-40l-56-210L115 0H75L2-248h35L96-30l15-64 43-154h32l59 218 59-218h35" id="aO"/><g id="v"><use transform="matrix(0.05,0,0,0.05,0,0)" xlink:href="#aF"/><use transform="matrix(0.05,0,0,0.05,11.35,0)" xlink:href="#aO"/><use transform="matrix(0.05,0,0,0.05,28.299999999999997,0)" xlink:href="#Y"/></g><path d="M143 4C61 4 22-44 18-125c-5-107 100-154 193-111 17 8 29 25 37 43l-32 9c-13-25-37-40-76-40-61 0-88 39-88 99 0 61 29 100 91 101 35 0 62-11 79-27v-45h-74v-28h105v86C228-13 192 4 143 4" id="aP"/><g id="w"><use transform="matrix(0.05,0,0,0.05,0,0)" xlink:href="#aP"/><use transform="matrix(0.05,0,0,0.05,14,0)" xlink:href="#aI"/><use transform="matrix(0.05,0,0,0.05,17.95,0)" xlink:href="#aG"/><use transform="matrix(0.05,0,0,0.05,27.950000000000003,0)" xlink:href="#W"/></g><g id="x"><use transform="matrix(0.05,0,0,0.05,0,0)" xlink:href="#aF"/><use transform="matrix(0.05,0,0,0.05,12,0)" xlink:href="#aM"/><use transform="matrix(0.05,0,0,0.05,26.950000000000003,0)" xlink:href="#am"/><use transform="matrix(0.05,0,0,0.05,36.95,0)" xlink:href="#aN"/><use transform="matrix(0.05,0,0,0.05,45.95,0)" xlink:href="#aH"/><use transform="matrix(0.05,0,0,0.05,55.95,0)" xlink:href="#ak"/></g><path d="M190 0L58-211 59 0H30v-248h39L202-35l-2-213h31V0h-41" id="aQ"/><g id="y"><use transform="matrix(0.05,0,0,0.05,0,0)" xlink:href="#Y"/><use transform="matrix(0.05,0,0,0.05,12,0)" xlink:href="#aQ"/><use transform="matrix(0.05,0,0,0.05,24.950000000000003,0)" xlink:href="#Y"/></g><g id="z"><use transform="matrix(0.05,0,0,0.05,0,0)" xlink:href="#aF"/><use transform="matrix(0.05,0,0,0.05,11.35,0)" xlink:href="#aO"/><use transform="matrix(0.05,0,0,0.05,28.299999999999997,0)" xlink:href="#Y"/></g><path d="M30 0v-248h33v221h125V0H30" id="aR"/><path d="M115-194c53 0 69 39 70 98 0 66-23 100-70 100C84 3 66-7 56-30L54 0H23l1-261h32v101c10-23 28-34 59-34zm-8 174c40 0 45-34 45-75 0-40-5-75-45-74-42 0-51 32-51 76 0 43 10 73 51 73" id="aS"/><path d="M85-194c31 0 48 13 60 33l-1-100h32l1 261h-30c-2-10 0-23-3-31C134-8 116 4 85 4 32 4 16-35 15-94c0-66 23-100 70-100zm9 24c-40 0-46 34-46 75 0 40 6 74 45 74 42 0 51-32 51-76 0-42-9-74-50-73" id="aT"/><g id="A"><use transform="matrix(0.05,0,0,0.05,0,0)" xlink:href="#aR"/><use transform="matrix(0.05,0,0,0.05,10,0)" xlink:href="#am"/><use transform="matrix(0.05,0,0,0.05,20,0)" xlink:href="#aM"/><use transform="matrix(0.05,0,0,0.05,34.95,0)" xlink:href="#aS"/><use transform="matrix(0.05,0,0,0.05,44.95,0)" xlink:href="#aT"/><use transform="matrix(0.05,0,0,0.05,54.95,0)" xlink:href="#am"/></g><path d="M233-177c-1 41-23 64-60 70L243 0h-38l-65-103H63V0H30v-248c88 3 205-21 203 71zM63-129c60-2 137 13 137-47 0-61-80-42-137-45v92" id="aU"/><g id="B"><use transform="matrix(0.05,0,0,0.05,0,0)" xlink:href="#aU"/><use transform="matrix(0.05,0,0,0.05,12.950000000000001,0)" xlink:href="#aJ"/><use transform="matrix(0.05,0,0,0.05,25.900000000000002,0)" xlink:href="#Y"/></g><g id="C"><use transform="matrix(0.05,0,0,0.05,0,0)" xlink:href="#aF"/><use transform="matrix(0.05,0,0,0.05,12,0)" xlink:href="#ab"/><use transform="matrix(0.05,0,0,0.05,24,0)" xlink:href="#aj"/></g><g id="D"><use transform="matrix(0.05,0,0,0.05,0,0)" xlink:href="#aD"/><use transform="matrix(0.05,0,0,0.05,9,0)" xlink:href="#aI"/><use transform="matrix(0.05,0,0,0.05,12.949999999999998,0)" xlink:href="#aI"/><use transform="matrix(0.05,0,0,0.05,16.9,0)" xlink:href="#U"/><use transform="matrix(0.05,0,0,0.05,20.849999999999998,0)" xlink:href="#W"/><use transform="matrix(0.05,0,0,0.05,30.849999999999994,0)" xlink:href="#ak"/><use transform="matrix(0.05,0,0,0.05,40.849999999999994,0)" xlink:href="#V"/></g><g id="E"><use transform="matrix(0.05,0,0,0.05,0,0)" xlink:href="#aD"/><use transform="matrix(0.05,0,0,0.05,9,0)" xlink:href="#aI"/><use transform="matrix(0.05,0,0,0.05,12.949999999999998,0)" xlink:href="#U"/><use transform="matrix(0.05,0,0,0.05,16.9,0)" xlink:href="#W"/><use transform="matrix(0.05,0,0,0.05,26.899999999999995,0)" xlink:href="#ak"/><use transform="matrix(0.05,0,0,0.05,36.9,0)" xlink:href="#V"/></g><g id="F"><use transform="matrix(0.05,0,0,0.05,0,0)" xlink:href="#aF"/><use transform="matrix(0.05,0,0,0.05,12,0)" xlink:href="#ab"/><use transform="matrix(0.05,0,0,0.05,24,0)" xlink:href="#aj"/></g><g id="G"><use transform="matrix(0.05,0,0,0.05,0,0)" xlink:href="#aP"/><use transform="matrix(0.05,0,0,0.05,14,0)" xlink:href="#am"/><use transform="matrix(0.05,0,0,0.05,24,0)" xlink:href="#V"/><use transform="matrix(0.05,0,0,0.05,29,0)" xlink:href="#W"/><use transform="matrix(0.05,0,0,0.05,39,0)" xlink:href="#T"/><use transform="matrix(0.05,0,0,0.05,51.95,0)" xlink:href="#am"/><use transform="matrix(0.05,0,0,0.05,61.95,0)" xlink:href="#an"/></g><g id="H"><use transform="matrix(0.05,0,0,0.05,0,0)" xlink:href="#aO"/><use transform="matrix(0.05,0,0,0.05,16.599999999999998,0)" xlink:href="#W"/><use transform="matrix(0.05,0,0,0.05,26.599999999999994,0)" xlink:href="#aS"/></g><path d="M140-251c81 0 123 46 123 126C263-53 228-8 163 1c7 30 30 48 69 40v23c-55 16-95-15-103-61C56-3 17-48 17-125c0-80 42-126 123-126zm0 227c63 0 89-41 89-101s-29-99-89-99c-61 0-89 39-89 99S79-25 140-24" id="aV"/><g id="I"><use transform="matrix(0.05,0,0,0.05,0,0)" xlink:href="#Y"/><use transform="matrix(0.05,0,0,0.05,12,0)" xlink:href="#aV"/><use transform="matrix(0.05,0,0,0.05,26,0)" xlink:href="#Y"/></g><g id="J"><use transform="matrix(0.05,0,0,0.05,0,0)" xlink:href="#aU"/><use transform="matrix(0.05,0,0,0.05,12.950000000000001,0)" xlink:href="#aJ"/><use transform="matrix(0.05,0,0,0.05,25.900000000000002,0)" xlink:href="#Y"/></g><g id="K"><use transform="matrix(0.05,0,0,0.05,0,0)" xlink:href="#aJ"/><use transform="matrix(0.05,0,0,0.05,12.950000000000001,0)" xlink:href="#aK"/></g><g id="L"><use transform="matrix(0.05,0,0,0.05,0,0)" xlink:href="#U"/><use transform="matrix(0.05,0,0,0.05,3.95,0)" xlink:href="#ak"/><use transform="matrix(0.05,0,0,0.05,13.949999999999998,0)" xlink:href="#aL"/><use transform="matrix(0.05,0,0,0.05,22.95,0)" xlink:href="#V"/><use transform="matrix(0.05,0,0,0.05,27.950000000000003,0)" xlink:href="#am"/><use transform="matrix(0.05,0,0,0.05,37.95,0)" xlink:href="#ak"/><use transform="matrix(0.05,0,0,0.05,47.95,0)" xlink:href="#aD"/><use transform="matrix(0.05,0,0,0.05,56.95,0)" xlink:href="#W"/></g><g id="M"><use transform="matrix(0.05,0,0,0.05,0,0)" xlink:href="#X"/><use transform="matrix(0.05,0,0,0.05,5.95,0)" xlink:href="#W"/><use transform="matrix(0.05,0,0,0.05,15.949999999999998,0)" xlink:href="#am"/><use transform="matrix(0.05,0,0,0.05,25.950000000000003,0)" xlink:href="#aT"/></g><g id="N"><use transform="matrix(0.05,0,0,0.05,0,0)" xlink:href="#X"/><use transform="matrix(0.05,0,0,0.05,5.95,0)" xlink:href="#W"/><use transform="matrix(0.05,0,0,0.05,15.949999999999998,0)" xlink:href="#aE"/><use transform="matrix(0.05,0,0,0.05,25.950000000000003,0)" xlink:href="#aI"/><use transform="matrix(0.05,0,0,0.05,29.899999999999995,0)" xlink:href="#U"/><use transform="matrix(0.05,0,0,0.05,33.85,0)" xlink:href="#aD"/><use transform="matrix(0.05,0,0,0.05,42.85,0)" xlink:href="#am"/></g><path fill="#fff" d="M24-248c93 1 206-16 204 79-1 75-69 88-152 82V0H24v-248zm52 121c47 0 100 7 100-41 0-47-54-39-100-39v80" id="aW"/><path fill="#fff" d="M140-251c80 0 125 45 125 126S219 4 139 4C58 4 15-44 15-125s44-126 125-126zm-1 214c52 0 73-35 73-88 0-50-21-86-72-86-52 0-73 35-73 86s22 88 72 88" id="aX"/><path fill="#fff" d="M169-182c-1-43-94-46-97-3 18 66 151 10 154 114 3 95-165 93-204 36-6-8-10-19-12-30l50-8c3 46 112 56 116 5-17-69-150-10-154-114-4-87 153-88 188-35 5 8 8 18 10 28" id="aY"/><path fill="#fff" d="M136-208V0H84v-208H4v-40h212v40h-80" id="aZ"/><g id="O"><use transform="matrix(0.06172839506172839,0,0,0.06172839506172839,0,0)" xlink:href="#aW"/><use transform="matrix(0.06172839506172839,0,0,0.06172839506172839,14.814814814814813,0)" xlink:href="#aX"/><use transform="matrix(0.06172839506172839,0,0,0.06172839506172839,32.09876543209876,0)" xlink:href="#aY"/><use transform="matrix(0.06172839506172839,0,0,0.06172839506172839,46.91358024691357,0)" xlink:href="#aZ"/></g><path fill="#fff" d="M67-125c0 54 23 88 75 88 28 0 53-7 68-21v-34h-60v-39h108v91C232-14 192 4 140 4 58 4 20-42 15-125 8-236 126-280 215-234c19 10 29 26 37 47l-47 15c-11-23-29-39-63-39-53 1-75 33-75 86" id="ba"/><path fill="#fff" d="M24 0v-248h195v40H76v63h132v40H76v65h150V0H24" id="bb"/><g id="P"><use transform="matrix(0.06172839506172839,0,0,0.06172839506172839,0,0)" xlink:href="#ba"/><use transform="matrix(0.06172839506172839,0,0,0.06172839506172839,17.28395061728395,0)" xlink:href="#bb"/><use transform="matrix(0.06172839506172839,0,0,0.06172839506172839,32.09876543209876,0)" xlink:href="#aZ"/></g><path fill="#fff" d="M240-174c0 40-23 61-54 70L253 0h-59l-57-94H76V0H24v-248c93 4 217-23 216 74zM76-134c48-2 112 12 112-38 0-48-66-32-112-35v73" id="bc"/><path fill="#fff" d="M140-251c80 0 125 45 125 126 0 70-33 111-92 124 6 28 34 38 68 31l-1 36C177 83 129 55 120 2 51-6 15-50 15-125c0-81 44-126 125-126zm-1 214c52 0 73-35 73-88 0-50-21-86-72-86-52 0-73 35-73 86s22 88 72 88" id="bd"/><g id="Q"><use transform="matrix(0.06172839506172839,0,0,0.06172839506172839,0,0)" xlink:href="#bc"/><use transform="matrix(0.06172839506172839,0,0,0.06172839506172839,15.987654320987653,0)" xlink:href="#bb"/><use transform="matrix(0.06172839506172839,0,0,0.06172839506172839,30.80246913580247,0)" xlink:href="#bd"/></g><g id="R"><use transform="matrix(0.06172839506172839,0,0,0.06172839506172839,0,0)" xlink:href="#bc"/><use transform="matrix(0.06172839506172839,0,0,0.06172839506172839,15.987654320987653,0)" xlink:href="#bb"/><use transform="matrix(0.06172839506172839,0,0,0.06172839506172839,30.80246913580247,0)" xlink:href="#aY"/></g></defs></g></svg>